<svg width="24" height="24" viewBox="0 0 24 24" fill="none" xmlns="http://www.w3.org/2000/svg">
<path d="M17.5 14.5H19.0022C20.3829 14.5 21.5022 13.3807 21.5022 12V6C21.5022 4.61929 20.3829 3.5 19.0022 3.5H9.2522C7.87149 3.5 6.7522 4.61929 6.7522 6V7.5M15.0022 7.5H5.0022C3.62149 7.5 2.5022 8.61929 2.5022 10V16C2.5022 17.3807 3.62149 18.5 5.0022 18.5H6.0022V21L10.5022 18.5H15.0022C16.3829 18.5 17.5022 17.3807 17.5022 16V10C17.5022 8.61929 16.3829 7.5 15.0022 7.5Z" stroke="black" stroke-linecap="round" stroke-linejoin="round"/>
</svg>
