<svg width="24" height="24" viewBox="0 0 24 24" fill="none" xmlns="http://www.w3.org/2000/svg">
<path d="M3.5 5.5C3.5 4.39543 4.39543 3.5 5.5 3.5H8.5C9.60457 3.5 10.5 4.39543 10.5 5.5V8.5C10.5 9.60457 9.60457 10.5 8.5 10.5H5.5C4.39543 10.5 3.5 9.60457 3.5 8.5V5.5Z" stroke="black" stroke-linecap="round" stroke-linejoin="round"/>
<path d="M3.5 15.5C3.5 14.3954 4.39543 13.5 5.5 13.5H8.5C9.60457 13.5 10.5 14.3954 10.5 15.5V18.5C10.5 19.6046 9.60457 20.5 8.5 20.5H5.5C4.39543 20.5 3.5 19.6046 3.5 18.5V15.5Z" stroke="black" stroke-linecap="round" stroke-linejoin="round"/>
<path d="M13.5 17C13.5 15.067 15.067 13.5 17 13.5C18.933 13.5 20.5 15.067 20.5 17C20.5 18.933 18.933 20.5 17 20.5C15.067 20.5 13.5 18.933 13.5 17Z" stroke="black" stroke-linecap="round" stroke-linejoin="round"/>
<path d="M13.5 5.5C13.5 4.39543 14.3954 3.5 15.5 3.5H18.5C19.6046 3.5 20.5 4.39543 20.5 5.5V8.5C20.5 9.60457 19.6046 10.5 18.5 10.5H15.5C14.3954 10.5 13.5 9.60457 13.5 8.5V5.5Z" stroke="black" stroke-linecap="round" stroke-linejoin="round"/>
</svg>
