<svg width="24" height="24" viewBox="0 0 24 24" fill="none" xmlns="http://www.w3.org/2000/svg">
<path d="M5.5 6.5H5.89445C6.89751 6.5 7.8342 5.9987 8.3906 5.1641L8.6094 4.8359C9.1658 4.0013 10.1025 3.5 11.1056 3.5H12.8944C13.8975 3.5 14.8342 4.0013 15.3906 4.8359L15.6094 5.1641C16.1658 5.9987 17.1025 6.5 18.1056 6.5H18.5C20.1569 6.5 21.5 7.84315 21.5 9.5V17.5C21.5 19.1569 20.1569 20.5 18.5 20.5H5.5C3.84315 20.5 2.5 19.1569 2.5 17.5V9.5C2.5 7.84315 3.84315 6.5 5.5 6.5Z" stroke="black" stroke-linecap="square" stroke-linejoin="round"/>
<path d="M15.5 13C15.5 14.933 13.933 16.5 12 16.5C10.067 16.5 8.5 14.933 8.5 13C8.5 11.067 10.067 9.5 12 9.5C13.933 9.5 15.5 11.067 15.5 13Z" stroke="black" stroke-linecap="square" stroke-linejoin="round"/>
</svg>
