<svg width="24" height="24" viewBox="0 0 24 24" fill="none" xmlns="http://www.w3.org/2000/svg">
<path d="M11 5.00001C11.5523 5.00001 12 4.5523 12 4.00001C12 3.44773 11.5523 3.00001 11 3.00001V5.00001ZM21 13C21 12.4477 20.5523 12 20 12C19.4477 12 19 12.4477 19 13H21ZM5.63803 19.673L6.09202 18.782H6.09202L5.63803 19.673ZM4.32698 18.362L3.43597 18.816H3.43597L4.32698 18.362ZM18.362 19.673L17.908 18.782H17.908L18.362 19.673ZM19.673 18.362L18.782 17.908V17.908L19.673 18.362ZM4.32698 5.63804L5.21799 6.09203L4.32698 5.63804ZM5.63803 4.32699L6.09202 5.218L5.63803 4.32699ZM9 15H8C8 15.5523 8.44772 16 9 16V15ZM9.29289 11.7071L10 12.4142L9.29289 11.7071ZM17.25 3.75001L16.5429 3.04291V3.04291L17.25 3.75001ZM20.25 6.75001L19.5429 6.04291V6.04291L20.25 6.75001ZM12.2929 14.7071L13 15.4142V15.4142L12.2929 14.7071ZM20.25 3.75001L19.5429 4.45712L20.25 3.75001ZM15.2 20V19H8.8V20V21H15.2V20ZM4 15.2H5V8.80001H4H3V15.2H4ZM8.8 4.00001V5.00001H11V4.00001V3.00001H8.8V4.00001ZM20 13H19V15.2H20H21V13H20ZM8.8 20V19C7.94342 19 7.36113 18.9992 6.91104 18.9625C6.47262 18.9266 6.24842 18.8617 6.09202 18.782L5.63803 19.673L5.18404 20.564C5.66937 20.8113 6.18608 20.9099 6.74817 20.9558C7.2986 21.0008 7.97642 21 8.8 21V20ZM4 15.2H3C3 16.0236 2.99922 16.7014 3.04419 17.2518C3.09012 17.8139 3.18868 18.3306 3.43597 18.816L4.32698 18.362L5.21799 17.908C5.1383 17.7516 5.07337 17.5274 5.03755 17.089C5.00078 16.6389 5 16.0566 5 15.2H4ZM5.63803 19.673L6.09202 18.782C5.7157 18.5903 5.40973 18.2843 5.21799 17.908L4.32698 18.362L3.43597 18.816C3.81947 19.5686 4.43139 20.1805 5.18404 20.564L5.63803 19.673ZM15.2 20V21C16.0236 21 16.7014 21.0008 17.2518 20.9558C17.8139 20.9099 18.3306 20.8113 18.816 20.564L18.362 19.673L17.908 18.782C17.7516 18.8617 17.5274 18.9266 17.089 18.9625C16.6389 18.9992 16.0566 19 15.2 19V20ZM20 15.2H19C19 16.0566 18.9992 16.6389 18.9624 17.089C18.9266 17.5274 18.8617 17.7516 18.782 17.908L19.673 18.362L20.564 18.816C20.8113 18.3306 20.9099 17.8139 20.9558 17.2518C21.0008 16.7014 21 16.0236 21 15.2H20ZM18.362 19.673L18.816 20.564C19.5686 20.1805 20.1805 19.5686 20.564 18.816L19.673 18.362L18.782 17.908C18.5903 18.2843 18.2843 18.5903 17.908 18.782L18.362 19.673ZM4 8.80001H5C5 7.94343 5.00078 7.36114 5.03755 6.91105C5.07337 6.47264 5.1383 6.24843 5.21799 6.09203L4.32698 5.63804L3.43597 5.18405C3.18868 5.66939 3.09012 6.18609 3.04419 6.74819C2.99922 7.29861 3 7.97643 3 8.80001H4ZM8.8 4.00001V3.00001C7.97642 3.00001 7.2986 2.99923 6.74817 3.04421C6.18608 3.09013 5.66937 3.1887 5.18404 3.43599L5.63803 4.32699L6.09202 5.218C6.24842 5.13831 6.47262 5.07338 6.91104 5.03756C7.36113 5.00079 7.94342 5.00001 8.8 5.00001V4.00001ZM4.32698 5.63804L5.21799 6.09203C5.40973 5.71571 5.71569 5.40975 6.09202 5.218L5.63803 4.32699L5.18404 3.43599C4.43139 3.81948 3.81947 4.4314 3.43597 5.18405L4.32698 5.63804ZM9 12.4142H8V15H9H10V12.4142H9ZM9 15V16H11.5858V15V14H9V15ZM9.29289 11.7071L10 12.4142L17.9571 4.45712L17.25 3.75001L16.5429 3.04291L8.58579 11L9.29289 11.7071ZM20.25 6.75001L19.5429 6.04291L11.5858 14L12.2929 14.7071L13 15.4142L20.9571 7.45712L20.25 6.75001ZM20.25 3.75001L19.5429 4.45712C19.9808 4.89502 19.9808 5.605 19.5429 6.04291L20.25 6.75001L20.9571 7.45712C22.1761 6.23817 22.1761 4.26186 20.9571 3.04291L20.25 3.75001ZM17.25 3.75001L17.9571 4.45712C18.395 4.01922 19.105 4.01922 19.5429 4.45712L20.25 3.75001L20.9571 3.04291C19.7382 1.82395 17.7618 1.82396 16.5429 3.04291L17.25 3.75001ZM11.5858 15V16C12.1162 16 12.6249 15.7893 13 15.4142L12.2929 14.7071L11.5858 14L11.5858 14V15ZM9 12.4142H10L9.29289 11.7071L8.58579 11C8.21071 11.3751 8 11.8838 8 12.4142H9Z" fill="black"/>
</svg>
