<svg width="24" height="24" viewBox="0 0 24 24" fill="none" xmlns="http://www.w3.org/2000/svg">
<path d="M10.5 4.5C10.5 5.05228 10.0523 5.5 9.5 5.5C8.94772 5.5 8.5 5.05228 8.5 4.5C8.5 3.94772 8.94772 3.5 9.5 3.5C10.0523 3.5 10.5 3.94772 10.5 4.5Z" stroke="black" stroke-linecap="round" stroke-linejoin="round"/>
<path d="M12 20C16.0095 20 18.7335 18.2199 20.2029 16.8989C20.8032 16.3591 20.3954 15.5 19.5881 15.5H4.41191C3.60459 15.5 3.19674 16.3591 3.79711 16.8989C5.26651 18.2199 7.99044 20 12 20Z" stroke="black" stroke-linecap="round" stroke-linejoin="round"/>
<path d="M9.5 20.5H14.5" stroke="black" stroke-linecap="round" stroke-linejoin="round"/>
<path d="M14.5 6.5L16 3.5L17.5 6.5L20.5 8L17.5 9.5L16 12.5L14.5 9.5L11.5 8L14.5 6.5Z" stroke="black" stroke-linecap="round" stroke-linejoin="round"/>
<path d="M5.58333 9.58333L6.5 7.75L7.41667 9.58333L9.25 10.5L7.41667 11.4167L6.5 13.25L5.58333 11.4167L3.75 10.5L5.58333 9.58333Z" stroke="black" stroke-linecap="round" stroke-linejoin="round"/>
</svg>
