<svg width="24" height="24" viewBox="0 0 24 24" fill="none" xmlns="http://www.w3.org/2000/svg">
<path d="M3.5 8.3C3.5 6.61984 3.5 5.77976 3.82698 5.13803C4.1146 4.57354 4.57354 4.1146 5.13803 3.82698C5.77976 3.5 6.61984 3.5 8.3 3.5H10.5V10.5H3.5V8.3Z" stroke="black" stroke-linecap="round" stroke-linejoin="round"/>
<path d="M13.5 3.5H15.7C17.3802 3.5 18.2202 3.5 18.862 3.82698C19.4265 4.1146 19.8854 4.57354 20.173 5.13803C20.5 5.77976 20.5 6.61984 20.5 8.3V10.5H13.5V3.5Z" stroke="black" stroke-linecap="round" stroke-linejoin="round"/>
<path d="M3.5 13.5H10.5V20.5H8.3C6.61984 20.5 5.77976 20.5 5.13803 20.173C4.57354 19.8854 4.1146 19.4265 3.82698 18.862C3.5 18.2202 3.5 17.3802 3.5 15.7V13.5Z" stroke="black" stroke-linecap="round" stroke-linejoin="round"/>
<path d="M13.5 13.5H20.5V15.7C20.5 17.3802 20.5 18.2202 20.173 18.862C19.8854 19.4265 19.4265 19.8854 18.862 20.173C18.2202 20.5 17.3802 20.5 15.7 20.5H13.5V13.5Z" stroke="black" stroke-linecap="round" stroke-linejoin="round"/>
</svg>
