<svg width="24" height="24" viewBox="0 0 24 24" fill="none" xmlns="http://www.w3.org/2000/svg">
<path d="M5.13803 20.173L4.91103 20.6185L4.91103 20.6185L5.13803 20.173ZM3.82698 18.862L3.38148 19.089L3.38148 19.089L3.82698 18.862ZM20.173 18.862L20.6185 19.089L20.6185 19.089L20.173 18.862ZM18.862 20.173L19.089 20.6185L19.089 20.6185L18.862 20.173ZM20.173 5.13803L20.6185 4.91103L20.6185 4.91103L20.173 5.13803ZM18.862 3.82698L19.089 3.38148L19.089 3.38148L18.862 3.82698ZM3.82698 5.13803L4.27248 5.36502L4.27248 5.36502L3.82698 5.13803ZM5.13803 3.82698L5.36502 4.27248L5.36502 4.27248L5.13803 3.82698ZM9 20.5L9 21L10 21L10 20.5L9.5 20.5L9 20.5ZM10 3.5L10 3L9 3L9 3.5L9.5 3.5L10 3.5ZM20.5 8.3H20V15.7H20.5H21V8.3H20.5ZM15.7 20.5V20H8.3V20.5V21H15.7V20.5ZM3.5 15.7H4V8.3H3.5H3V15.7H3.5ZM8.3 3.5V4H15.7V3.5V3H8.3V3.5ZM8.3 20.5V20C7.45167 20 6.84549 19.9996 6.37032 19.9608C5.90099 19.9224 5.60366 19.8491 5.36502 19.7275L5.13803 20.173L4.91103 20.6185C5.31413 20.8239 5.75771 20.9141 6.28889 20.9575C6.81423 21.0004 7.46817 21 8.3 21V20.5ZM3.5 15.7H3C3 16.5318 2.99961 17.1858 3.04253 17.7111C3.08593 18.2423 3.17609 18.6859 3.38148 19.089L3.82698 18.862L4.27248 18.635C4.15089 18.3963 4.07756 18.099 4.03921 17.6297C4.00039 17.1545 4 16.5483 4 15.7H3.5ZM5.13803 20.173L5.36502 19.7275C4.89462 19.4878 4.51217 19.1054 4.27248 18.635L3.82698 18.862L3.38148 19.089C3.71703 19.7475 4.25247 20.283 4.91103 20.6185L5.13803 20.173ZM20.5 15.7H20C20 16.5483 19.9996 17.1545 19.9608 17.6297C19.9224 18.099 19.8491 18.3963 19.7275 18.635L20.173 18.862L20.6185 19.089C20.8239 18.6859 20.9141 18.2423 20.9575 17.7111C21.0004 17.1858 21 16.5318 21 15.7H20.5ZM15.7 20.5V21C16.5318 21 17.1858 21.0004 17.7111 20.9575C18.2423 20.9141 18.6859 20.8239 19.089 20.6185L18.862 20.173L18.635 19.7275C18.3963 19.8491 18.099 19.9224 17.6297 19.9608C17.1545 19.9996 16.5483 20 15.7 20V20.5ZM20.173 18.862L19.7275 18.635C19.4878 19.1054 19.1054 19.4878 18.635 19.7275L18.862 20.173L19.089 20.6185C19.7475 20.283 20.283 19.7475 20.6185 19.089L20.173 18.862ZM20.5 8.3H21C21 7.46817 21.0004 6.81423 20.9575 6.28889C20.9141 5.75771 20.8239 5.31413 20.6185 4.91103L20.173 5.13803L19.7275 5.36502C19.8491 5.60366 19.9224 5.90099 19.9608 6.37032C19.9996 6.84549 20 7.45167 20 8.3H20.5ZM15.7 3.5V4C16.5483 4 17.1545 4.00039 17.6297 4.03921C18.099 4.07756 18.3963 4.15089 18.635 4.27248L18.862 3.82698L19.089 3.38148C18.6859 3.17609 18.2423 3.08593 17.7111 3.04253C17.1858 2.99961 16.5318 3 15.7 3V3.5ZM20.173 5.13803L20.6185 4.91103C20.283 4.25247 19.7475 3.71703 19.089 3.38148L18.862 3.82698L18.635 4.27248C19.1054 4.51217 19.4878 4.89462 19.7275 5.36502L20.173 5.13803ZM3.5 8.3H4C4 7.45167 4.00039 6.84549 4.03921 6.37032C4.07756 5.90099 4.15089 5.60366 4.27248 5.36502L3.82698 5.13803L3.38148 4.91103C3.17609 5.31413 3.08593 5.75771 3.04253 6.28889C2.99961 6.81423 3 7.46817 3 8.3H3.5ZM8.3 3.5V3C7.46817 3 6.81423 2.99961 6.28889 3.04253C5.75771 3.08593 5.31413 3.17609 4.91103 3.38148L5.13803 3.82698L5.36502 4.27248C5.60366 4.15089 5.90099 4.07756 6.37032 4.03921C6.84549 4.00039 7.45167 4 8.3 4V3.5ZM3.82698 5.13803L4.27248 5.36502C4.51217 4.89462 4.89462 4.51217 5.36502 4.27248L5.13803 3.82698L4.91103 3.38148C4.25247 3.71703 3.71703 4.25247 3.38148 4.91103L3.82698 5.13803ZM9.5 20.5L10 20.5L10 3.5L9.5 3.5L9 3.5L9 20.5L9.5 20.5Z" fill="black"/>
</svg>
