<svg width="24" height="24" viewBox="0 0 24 24" fill="none" xmlns="http://www.w3.org/2000/svg">
<path d="M7.50003 7C7.50003 4.51472 9.51475 2.5 12 2.5C14.4853 2.5 16.5 4.51472 16.5 7V12C16.5 14.4853 14.4853 16.5 12 16.5C9.51475 16.5 7.50003 14.4853 7.50003 12V7Z" fill="black"/>
<path d="M12 19.5C15.4496 19.5 18.3552 17.1712 19.2304 14M12 19.5C8.55051 19.5 5.6449 17.1712 4.76965 14M12 19.5V21.5M12 16.5C9.51475 16.5 7.50003 14.4853 7.50003 12V7C7.50003 4.51472 9.51475 2.5 12 2.5C14.4853 2.5 16.5 4.51472 16.5 7V12C16.5 14.4853 14.4853 16.5 12 16.5Z" stroke="black" stroke-linecap="round" stroke-linejoin="round"/>
</svg>
