<svg width="24" height="24" viewBox="0 0 24 24" fill="none" xmlns="http://www.w3.org/2000/svg">
<path fill-rule="evenodd" clip-rule="evenodd" d="M8.27779 3H15.7222C16.5435 3 17.1905 2.99999 17.7111 3.04253C18.2423 3.08593 18.6859 3.17609 19.089 3.38148C19.7475 3.71703 20.283 4.25247 20.6185 4.91103C20.8239 5.31413 20.9141 5.75771 20.9575 6.28889C21 6.80954 21 7.45651 21 8.27778V15.7222C21 16.5435 21 17.1905 20.9575 17.7111C20.9141 18.2423 20.8239 18.6859 20.6185 19.089C20.283 19.7475 19.7475 20.283 19.089 20.6185C18.6859 20.8239 18.2423 20.9141 17.7111 20.9575C17.1905 21 16.5435 21 15.7222 21H8.27778C7.45651 21 6.80954 21 6.28889 20.9575C5.75771 20.9141 5.31413 20.8239 4.91103 20.6185C4.25247 20.283 3.71703 19.7475 3.38148 19.089C3.17609 18.6859 3.08593 18.2423 3.04253 17.7111C2.99999 17.1905 3 16.5435 3 15.7222V8.27778C3 7.45652 2.99999 6.80954 3.04253 6.28889C3.08593 5.75771 3.17609 5.31414 3.38148 4.91103C3.71703 4.25247 4.25247 3.71703 4.91103 3.38148C5.31414 3.17609 5.75771 3.08593 6.28889 3.04253C6.80954 2.99999 7.45653 3 8.27779 3ZM15.8503 10.1036C16.0456 9.9083 16.0456 9.59172 15.8503 9.39646C15.6551 9.20119 15.3385 9.20119 15.1432 9.39646L10.9968 13.5429L9.35032 11.8965C9.15505 11.7012 8.83847 11.7012 8.64321 11.8965C8.44795 12.0917 8.44795 12.4083 8.64321 12.6036L10.6432 14.6036C10.8385 14.7988 11.1551 14.7988 11.3503 14.6036L15.8503 10.1036Z" fill="black"/>
</svg>
