<svg width="24" height="24" viewBox="0 0 24 24" fill="none" xmlns="http://www.w3.org/2000/svg">
<path fill-rule="evenodd" clip-rule="evenodd" d="M18.05 4V13H20.55C20.8262 13 21.05 12.7761 21.05 12.5V4.5C21.05 4.22386 20.8262 4 20.55 4H18.05ZM17.8409 14H20.55C21.3784 14 22.05 13.3284 22.05 12.5V4.5C22.05 3.67157 21.3784 3 20.55 3H6.58253C4.87615 3 3.41848 4.23052 3.13215 5.9127L2.15343 11.6627C1.78969 13.7996 3.43613 15.75 5.60381 15.75H10.449L9.9199 19.1112C9.68108 20.6283 10.8537 22 12.3895 22H12.4199C12.9593 22 13.4572 21.7103 13.7238 21.2414L17.8409 14Z" fill="black"/>
</svg>
