<svg width="24" height="24" viewBox="0 0 24 24" fill="none" xmlns="http://www.w3.org/2000/svg">
<path d="M5.8133 18.1996L6.81109 18.133L5.8133 18.1996ZM18.1867 18.1996L19.1845 18.2661L18.1867 18.1996ZM3 5C2.44772 5 2 5.44772 2 6C2 6.55228 2.44772 7 3 7V5ZM21 7C21.5523 7 22 6.55228 22 6C22 5.44772 21.5523 5 21 5V7ZM11 11C11 10.4477 10.5523 10 10 10C9.44772 10 9 10.4477 9 11H11ZM9 16C9 16.5523 9.44772 17 10 17C10.5523 17 11 16.5523 11 16H9ZM15 11C15 10.4477 14.5523 10 14 10C13.4477 10 13 10.4477 13 11H15ZM13 16C13 16.5523 13.4477 17 14 17C14.5523 17 15 16.5523 15 16H13ZM14.9056 6.24926C15.0432 6.78411 15.5884 7.1061 16.1233 6.96844C16.6581 6.83078 16.9801 6.28559 16.8424 5.75074L14.9056 6.24926ZM5 6L4.00221 6.06652L4.81552 18.2661L5.8133 18.1996L6.81109 18.133L5.99779 5.93348L5 6ZM8.80666 21V22H15.1933V21V20H8.80666V21ZM18.1867 18.1996L19.1845 18.2661L19.9978 6.06652L19 6L18.0022 5.93348L17.1889 18.133L18.1867 18.1996ZM19 6V5H5V6V7H19V6ZM3 6V7H5V6V5H3V6ZM19 6V7H21V6V5H19V6ZM15.1933 21V22C17.2992 22 19.0444 20.3673 19.1845 18.2661L18.1867 18.1996L17.1889 18.133C17.1189 19.1836 16.2463 20 15.1933 20V21ZM5.8133 18.1996L4.81552 18.2661C4.9556 20.3673 6.7008 22 8.80666 22V21V20C7.75373 20 6.88113 19.1836 6.81109 18.133L5.8133 18.1996ZM10 11H9V16H10H11V11H10ZM14 11H13V16H14H15V11H14ZM12 3V4C13.3965 4 14.5725 4.95512 14.9056 6.24926L15.874 6L16.8424 5.75074C16.2874 3.59442 14.3312 2 12 2V3ZM8.12604 6L9.09447 6.24926C9.42756 4.95512 10.6035 4 12 4V3V2C9.66885 2 7.7126 3.59442 7.1576 5.75074L8.12604 6Z" fill="black"/>
</svg>
