<svg width="20" height="20" viewBox="0 0 20 20" fill="none" xmlns="http://www.w3.org/2000/svg">
<path d="M9.16666 4.33334C9.71895 4.33334 10.1667 3.88562 10.1667 3.33334C10.1667 2.78105 9.71895 2.33334 9.16666 2.33334V4.33334ZM17.6667 10.8333C17.6667 10.2811 17.2189 9.83334 16.6667 9.83334C16.1144 9.83334 15.6667 10.2811 15.6667 10.8333H17.6667ZM4.69835 16.3942L5.15234 15.5032L5.15234 15.5032L4.69835 16.3942ZM3.60581 15.3016L2.71481 15.7556L2.71481 15.7556L3.60581 15.3016ZM15.3016 16.3942L14.8476 15.5032L14.8476 15.5032L15.3016 16.3942ZM16.3942 15.3016L15.5032 14.8477L15.5032 14.8477L16.3942 15.3016ZM3.60581 4.69836L4.49682 5.15235L4.49682 5.15235L3.60581 4.69836ZM4.69835 3.60582L5.15234 4.49683L5.15234 4.49683L4.69835 3.60582ZM7.49999 12.5H6.49999C6.49999 13.0523 6.94771 13.5 7.49999 13.5V12.5ZM7.74407 9.75593L8.45118 10.463L8.45118 10.463L7.74407 9.75593ZM14.375 3.12501L13.6679 2.4179L13.6679 2.4179L14.375 3.12501ZM16.875 5.62501L16.1679 4.9179L16.1679 4.9179L16.875 5.62501ZM10.2441 12.2559L10.9512 12.963L10.9512 12.963L10.2441 12.2559ZM16.875 3.12501L16.1679 3.83211L16.1679 3.83211L16.875 3.12501ZM12.6667 16.6667V15.6667H7.33333V16.6667V17.6667H12.6667V16.6667ZM3.33333 12.6667H4.33333V7.33334H3.33333H2.33333V12.6667H3.33333ZM7.33333 3.33334V4.33334H9.16666V3.33334V2.33334H7.33333V3.33334ZM16.6667 10.8333H15.6667V12.6667H16.6667H17.6667V10.8333H16.6667ZM7.33333 16.6667V15.6667C6.61676 15.6667 6.13948 15.6659 5.77277 15.6359C5.41773 15.6069 5.25526 15.5556 5.15234 15.5032L4.69835 16.3942L4.24436 17.2852C4.67622 17.5052 5.13118 17.5902 5.6099 17.6293C6.07695 17.6675 6.64976 17.6667 7.33333 17.6667V16.6667ZM3.33333 12.6667H2.33333C2.33333 13.3502 2.33255 13.9231 2.37071 14.3901C2.40982 14.8688 2.49476 15.3238 2.71481 15.7556L3.60581 15.3016L4.49682 14.8477C4.44438 14.7447 4.39308 14.5823 4.36407 14.2272C4.33411 13.8605 4.33333 13.3832 4.33333 12.6667H3.33333ZM4.69835 16.3942L5.15234 15.5032C4.8701 15.3594 4.64063 15.1299 4.49682 14.8477L3.60581 15.3016L2.71481 15.7556C3.05036 16.4142 3.58579 16.9496 4.24436 17.2852L4.69835 16.3942ZM12.6667 16.6667V17.6667C13.3502 17.6667 13.923 17.6675 14.3901 17.6293C14.8688 17.5902 15.3238 17.5052 15.7556 17.2852L15.3016 16.3942L14.8476 15.5032C14.7447 15.5556 14.5823 15.6069 14.2272 15.6359C13.8605 15.6659 13.3832 15.6667 12.6667 15.6667V16.6667ZM16.6667 12.6667H15.6667C15.6667 13.3832 15.6659 13.8605 15.6359 14.2272C15.6069 14.5823 15.5556 14.7447 15.5032 14.8477L16.3942 15.3016L17.2852 15.7556C17.5052 15.3238 17.5902 14.8688 17.6293 14.3901C17.6674 13.9231 17.6667 13.3502 17.6667 12.6667H16.6667ZM15.3016 16.3942L15.7556 17.2852C16.4142 16.9496 16.9496 16.4142 17.2852 15.7556L16.3942 15.3016L15.5032 14.8477C15.3594 15.1299 15.1299 15.3594 14.8476 15.5032L15.3016 16.3942ZM3.33333 7.33334H4.33333C4.33333 6.61677 4.33411 6.13949 4.36407 5.77278C4.39308 5.41774 4.44438 5.25527 4.49682 5.15235L3.60581 4.69836L2.71481 4.24437C2.49476 4.67623 2.40982 5.13119 2.37071 5.60991C2.33255 6.07696 2.33333 6.64977 2.33333 7.33334H3.33333ZM7.33333 3.33334V2.33334C6.64976 2.33334 6.07695 2.33256 5.6099 2.37072C5.13118 2.40983 4.67622 2.49477 4.24436 2.71482L4.69835 3.60582L5.15234 4.49683C5.25526 4.44439 5.41773 4.39309 5.77277 4.36408C6.13948 4.33412 6.61676 4.33334 7.33333 4.33334V3.33334ZM3.60581 4.69836L4.49682 5.15235C4.64063 4.87011 4.8701 4.64064 5.15234 4.49683L4.69835 3.60582L4.24436 2.71482C3.58579 3.05037 3.05036 3.5858 2.71481 4.24437L3.60581 4.69836ZM7.49999 10.3452H6.49999V12.5H7.49999H8.49999V10.3452H7.49999ZM7.49999 12.5V13.5H9.65482V12.5V11.5H7.49999V12.5ZM7.74407 9.75593L8.45118 10.463L15.0821 3.83211L14.375 3.12501L13.6679 2.4179L7.03697 9.04882L7.74407 9.75593ZM16.875 5.62501L16.1679 4.9179L9.53697 11.5488L10.2441 12.2559L10.9512 12.963L17.5821 6.33211L16.875 5.62501ZM16.875 3.12501L16.1679 3.83211C16.4677 4.13194 16.4677 4.61807 16.1679 4.9179L16.875 5.62501L17.5821 6.33211C18.663 5.25123 18.663 3.49878 17.5821 2.4179L16.875 3.12501ZM14.375 3.12501L15.0821 3.83211C15.3819 3.53228 15.8681 3.53228 16.1679 3.83211L16.875 3.12501L17.5821 2.4179C16.5012 1.33702 14.7488 1.33702 13.6679 2.4179L14.375 3.12501ZM9.65482 12.5V13.5C10.141 13.5 10.6074 13.3069 10.9512 12.963L10.2441 12.2559L9.53697 11.5488C9.56822 11.5176 9.61061 11.5 9.65482 11.5V12.5ZM7.49999 10.3452H8.49999C8.49999 10.3894 8.48244 10.4318 8.45118 10.463L7.74407 9.75593L7.03697 9.04882C6.69315 9.39264 6.49999 9.85895 6.49999 10.3452H7.49999Z" fill="black"/>
</svg>
