<svg width="20" height="20" viewBox="0 0 20 20" fill="none" xmlns="http://www.w3.org/2000/svg">
<path d="M12.7285 10.9559C14.7895 10.4548 17.0898 11.4897 18.1629 14.0604C18.7214 15.3985 17.5173 16.6667 16.0674 16.6667H14.1666M8.74998 5.83333C8.74998 7.21404 7.6307 8.33333 6.24999 8.33333C4.86927 8.33333 3.74998 7.21404 3.74998 5.83333C3.74998 4.45262 4.86927 3.33333 6.24999 3.33333C7.6307 3.33333 8.74998 4.45262 8.74998 5.83333ZM16.25 5.83333C16.25 7.21404 15.1307 8.33333 13.75 8.33333C12.3693 8.33333 11.25 7.21404 11.25 5.83333C11.25 4.45262 12.3693 3.33333 13.75 3.33333C15.1307 3.33333 16.25 4.45262 16.25 5.83333ZM8.56755 16.6667H3.93242C2.48249 16.6667 1.27861 15.3974 1.83735 14.0594C3.63366 9.75796 8.86631 9.75796 10.6626 14.0594C11.2214 15.3974 10.0175 16.6667 8.56755 16.6667Z" stroke="black" stroke-width="2" stroke-linecap="round" stroke-linejoin="round"/>
</svg>
