<svg width="20" height="20" viewBox="0 0 20 20" fill="none" xmlns="http://www.w3.org/2000/svg">
<path d="M3.33337 7.33333C3.33337 5.9332 3.33337 5.23313 3.60586 4.69835C3.84554 4.22795 4.22799 3.8455 4.6984 3.60581C5.23318 3.33333 5.93324 3.33333 7.33337 3.33333H8.33337V8.33333H3.33337V7.33333Z" stroke="black" stroke-width="2" stroke-linecap="round" stroke-linejoin="round"/>
<path d="M11.6667 3.33333H12.6667C14.0668 3.33333 14.7669 3.33333 15.3017 3.60581C15.7721 3.8455 16.1545 4.22795 16.3942 4.69835C16.6667 5.23313 16.6667 5.9332 16.6667 7.33333V8.33333H11.6667V3.33333Z" stroke="black" stroke-width="2" stroke-linecap="round" stroke-linejoin="round"/>
<path d="M3.33337 11.6667H8.33337V16.6667H7.33337C5.93324 16.6667 5.23318 16.6667 4.6984 16.3942C4.22799 16.1545 3.84554 15.772 3.60586 15.3016C3.33337 14.7669 3.33337 14.0668 3.33337 12.6667V11.6667Z" stroke="black" stroke-width="2" stroke-linecap="round" stroke-linejoin="round"/>
<path d="M11.6667 11.6667H16.6667V12.6667C16.6667 14.0668 16.6667 14.7669 16.3942 15.3016C16.1545 15.772 15.7721 16.1545 15.3017 16.3942C14.7669 16.6667 14.0668 16.6667 12.6667 16.6667H11.6667V11.6667Z" stroke="black" stroke-width="2" stroke-linecap="round" stroke-linejoin="round"/>
</svg>
