<svg width="20" height="20" viewBox="0 0 20 20" fill="none" xmlns="http://www.w3.org/2000/svg">
<path d="M3.33334 16.6667V14.3689C3.33334 13.7058 3.59674 13.0699 4.06558 12.6011L12.5 4.16666C13.4205 3.24618 14.9129 3.24618 15.8333 4.16666C16.7538 5.08713 16.7538 6.57952 15.8333 7.49999L7.39891 15.9344C6.93007 16.4033 6.29418 16.6667 5.63114 16.6667H3.33334Z" stroke="black" stroke-width="2" stroke-linecap="round" stroke-linejoin="round"/>
<path d="M3.96264 4.29808C3.87503 4.12287 3.625 4.12287 3.53739 4.29808L2.99305 5.38676C2.97005 5.43276 2.93275 5.47007 2.88674 5.49307L1.79806 6.03741C1.62285 6.12501 1.62285 6.37505 1.79806 6.46265L2.88674 7.00699C2.93275 7.02999 2.97005 7.0673 2.99305 7.1133L3.53739 8.20198C3.625 8.37719 3.87503 8.37719 3.96264 8.20198L4.50698 7.1133C4.52998 7.0673 4.56728 7.02999 4.61329 7.00699L5.70197 6.46265C5.87718 6.37505 5.87718 6.12501 5.70197 6.03741L4.61329 5.49307C4.56728 5.47007 4.52998 5.43276 4.50698 5.38676L3.96264 4.29808Z" fill="black"/>
<path d="M7.72038 1.80288C7.62957 1.62127 7.3704 1.62127 7.2796 1.80288L6.87964 2.60279C6.8558 2.65048 6.81713 2.68915 6.76945 2.71299L5.96953 3.11295C5.78792 3.20375 5.78792 3.46292 5.96953 3.55373L6.76945 3.95369C6.81713 3.97753 6.8558 4.0162 6.87964 4.06388L7.2796 4.8638C7.3704 5.04541 7.62957 5.04541 7.72038 4.8638L8.12034 4.06388C8.14418 4.0162 8.18285 3.97753 8.23053 3.95369L9.03045 3.55373C9.21206 3.46292 9.21206 3.20375 9.03045 3.11295L8.23053 2.71299C8.18285 2.68915 8.14418 2.65048 8.12034 2.60279L7.72038 1.80288Z" fill="black"/>
<path d="M15.6293 12.6314C15.5417 12.4562 15.2916 12.4562 15.204 12.6314L14.6597 13.7201C14.6367 13.7661 14.5994 13.8034 14.5534 13.8264L13.4647 14.3707C13.2895 14.4583 13.2895 14.7084 13.4647 14.796L14.5534 15.3403C14.5994 15.3633 14.6367 15.4006 14.6597 15.4466L15.204 16.5353C15.2916 16.7105 15.5417 16.7105 15.6293 16.5353L16.1736 15.4466C16.1966 15.4006 16.2339 15.3633 16.2799 15.3403L17.3686 14.796C17.5438 14.7084 17.5438 14.4583 17.3686 14.3707L16.2799 13.8264C16.2339 13.8034 16.1966 13.7661 16.1736 13.7201L15.6293 12.6314Z" fill="black"/>
</svg>
