<svg width="20" height="20" viewBox="0 0 20 20" fill="none" xmlns="http://www.w3.org/2000/svg">
<path d="M12.0815 8.33333C12.0815 9.48393 11.1487 10.4167 9.99813 10.4167C8.84753 10.4167 7.91479 9.48393 7.91479 8.33333C7.91479 7.18274 8.84753 6.25 9.99813 6.25C11.1487 6.25 12.0815 7.18274 12.0815 8.33333Z" stroke="black" stroke-width="2" stroke-linejoin="round"/>
<path d="M15.8333 8.33333C15.8333 11.6651 13.1235 14.7134 11.3977 16.317C10.5982 17.0599 9.40168 17.0599 8.60219 16.317C6.87642 14.7134 4.16663 11.6651 4.16663 8.33333C4.16663 5.11167 6.7783 2.5 9.99996 2.5C13.2216 2.5 15.8333 5.11167 15.8333 8.33333Z" stroke="black" stroke-width="2" stroke-linejoin="round"/>
</svg>
