<svg width="20" height="20" viewBox="0 0 20 20" fill="none" xmlns="http://www.w3.org/2000/svg">
<path fill-rule="evenodd" clip-rule="evenodd" d="M4.16663 4.16666C4.16663 2.32571 5.65901 0.833328 7.49996 0.833328H12.5C14.3409 0.833328 15.8333 2.32571 15.8333 4.16666V15.8333C15.8333 17.6743 14.3409 19.1667 12.5 19.1667H7.49996C5.65901 19.1667 4.16663 17.6743 4.16663 15.8333V4.16666ZM8.33329 15C7.87306 15 7.49996 15.3731 7.49996 15.8333C7.49996 16.2936 7.87306 16.6667 8.33329 16.6667H11.6666C12.1269 16.6667 12.5 16.2936 12.5 15.8333C12.5 15.3731 12.1269 15 11.6666 15H8.33329Z" fill="black"/>
</svg>
