<svg width="20" height="20" viewBox="0 0 20 20" fill="none" xmlns="http://www.w3.org/2000/svg">
<path d="M3.33337 4.99999C3.33337 4.07952 4.07957 3.33333 5.00004 3.33333H6.66671C7.58718 3.33333 8.33337 4.07952 8.33337 4.99999V6.66666C8.33337 7.58714 7.58718 8.33333 6.66671 8.33333H5.00004C4.07957 8.33333 3.33337 7.58714 3.33337 6.66666V4.99999Z" stroke="black" stroke-width="1.995" stroke-linecap="round" stroke-linejoin="round"/>
<path d="M3.33337 13.3333C3.33337 12.4129 4.07957 11.6667 5.00004 11.6667H6.66671C7.58718 11.6667 8.33337 12.4129 8.33337 13.3333V15C8.33337 15.9205 7.58718 16.6667 6.66671 16.6667H5.00004C4.07957 16.6667 3.33337 15.9205 3.33337 15V13.3333Z" stroke="black" stroke-width="1.995" stroke-linecap="round" stroke-linejoin="round"/>
<path d="M11.6666 4.99999C11.6666 4.07952 12.4128 3.33333 13.3333 3.33333H15C15.9204 3.33333 16.6666 4.07952 16.6666 4.99999V6.66666C16.6666 7.58714 15.9204 8.33333 15 8.33333H13.3333C12.4128 8.33333 11.6666 7.58714 11.6666 6.66666V4.99999Z" stroke="black" stroke-width="1.995" stroke-linecap="round" stroke-linejoin="round"/>
<path d="M11.6666 14.1667C11.6666 12.786 12.7859 11.6667 14.1666 11.6667C15.5473 11.6667 16.6666 12.786 16.6666 14.1667C16.6666 15.5474 15.5473 16.6667 14.1666 16.6667C12.7859 16.6667 11.6666 15.5474 11.6666 14.1667Z" stroke="black" stroke-width="1.995" stroke-linecap="round" stroke-linejoin="round"/>
</svg>
