<svg width="20" height="20" viewBox="0 0 20 20" fill="none" xmlns="http://www.w3.org/2000/svg">
<path d="M11.9531 14.2708H16.3802M17.7083 16.0416L14.9462 8.73016C14.6748 8.01172 13.6585 8.01172 13.3871 8.73016L10.625 16.0416" stroke="black" stroke-width="2" stroke-linecap="round" stroke-linejoin="round"/>
<path d="M10 3L10 10" stroke="black" stroke-width="2" stroke-linecap="round" stroke-linejoin="round"/>
<path d="M6.5 6H9.5" stroke="black" stroke-width="2" stroke-linecap="round" stroke-linejoin="round"/>
<path d="M8 3H12" stroke="black" stroke-width="2" stroke-linecap="round" stroke-linejoin="round"/>
<path d="M3 3H4.50001C5.32844 3 6.00001 3.67157 6.00001 4.5V4.5C6.00001 5.32843 5.32844 6 4.50001 6H4" stroke="black" stroke-width="2" stroke-linecap="round" stroke-linejoin="round"/>
<path d="M4 6H4.93128C6.07381 6 7.00002 6.9262 7.00002 8.06874V8.06874C7.00002 9.15614 6.15542 10.0873 5.06976 10.0257C4.9584 10.0193 4.85085 10.0109 4.75001 10C3.87645 9.90528 2.5 9 2.5 9" stroke="black" stroke-width="2" stroke-linecap="round" stroke-linejoin="round"/>
</svg>
