<svg width="20" height="20" viewBox="0 0 20 20" fill="none" xmlns="http://www.w3.org/2000/svg">
<path d="M4.84442 15.1663L5.84221 15.0998L5.84221 15.0998L4.84442 15.1663ZM15.1556 15.1663L16.1534 15.2328L15.1556 15.1663ZM2.5 4C1.94772 4 1.5 4.44772 1.5 5C1.5 5.55228 1.94772 6 2.5 6V4ZM17.5 6C18.0523 6 18.5 5.55228 18.5 5C18.5 4.44772 18.0523 4 17.5 4V6ZM9.33333 9.16667C9.33333 8.61438 8.88562 8.16667 8.33333 8.16667C7.78105 8.16667 7.33333 8.61438 7.33333 9.16667H9.33333ZM7.33333 13.3333C7.33333 13.8856 7.78105 14.3333 8.33333 14.3333C8.88562 14.3333 9.33333 13.8856 9.33333 13.3333H7.33333ZM12.6667 9.16667C12.6667 8.61438 12.219 8.16667 11.6667 8.16667C11.1144 8.16667 10.6667 8.61438 10.6667 9.16667H12.6667ZM10.6667 13.3333C10.6667 13.8856 11.1144 14.3333 11.6667 14.3333C12.219 14.3333 12.6667 13.8856 12.6667 13.3333H10.6667ZM12.2599 5.24926C12.3976 5.78411 12.9427 6.1061 13.4776 5.96844C14.0124 5.83078 14.3344 5.28559 14.1968 4.75074L12.2599 5.24926ZM4.16667 5L3.16888 5.06652L3.84663 15.2328L4.84442 15.1663L5.84221 15.0998L5.16445 4.93348L4.16667 5ZM7.33888 17.5V18.5H12.6611V17.5V16.5H7.33888V17.5ZM15.1556 15.1663L16.1534 15.2328L16.8311 5.06652L15.8333 5L14.8355 4.93348L14.1578 15.0998L15.1556 15.1663ZM15.8333 5V4H4.16667V5V6H15.8333V5ZM2.5 5V6H4.16667V5V4H2.5V5ZM15.8333 5V6H17.5V5V4H15.8333V5ZM12.6611 17.5V18.5C14.5037 18.5 16.0308 17.0714 16.1534 15.2328L15.1556 15.1663L14.1578 15.0998C14.1053 15.8877 13.4508 16.5 12.6611 16.5V17.5ZM4.84442 15.1663L3.84663 15.2328C3.9692 17.0714 5.49626 18.5 7.33888 18.5V17.5V16.5C6.54919 16.5 5.89473 15.8877 5.84221 15.0998L4.84442 15.1663ZM8.33333 9.16667H7.33333V13.3333H8.33333H9.33333V9.16667H8.33333ZM11.6667 9.16667H10.6667V13.3333H11.6667H12.6667V9.16667H11.6667ZM10 2.5V3.5C11.0859 3.5 12.0008 4.24266 12.2599 5.24926L13.2283 5L14.1968 4.75074C13.7158 2.88196 12.0205 1.5 10 1.5V2.5ZM6.7717 5L7.74013 5.24926C7.99922 4.24266 8.91415 3.5 10 3.5V2.5V1.5C7.97949 1.5 6.28425 2.88196 5.80326 4.75074L6.7717 5Z" fill="black"/>
</svg>
