<svg xmlns="http://www.w3.org/2000/svg" style="display: none;">
  <defs>
    <symbol id="icon-arrow" viewBox="0 0 24 24">
      <path d="M15 4.58152C14.0736 4.20651 13.0609 4 12 4C7.58172 4 4 7.58172 4 12C4 15.1631 5.83576 17.8975 8.5 19.1958M9 15V20H4" stroke="black" stroke-width="2" stroke-linecap="square"/>
      <path d="M13 21C13.5523 21 14 20.5523 14 20C14 19.4477 13.5523 19 13 19C12.4477 19 12 19.4477 12 20C12 20.5523 12.4477 21 13 21Z" fill="black"/>
      <path d="M21 11C21 10.4477 20.5523 9.99999 20 9.99999C19.4477 9.99999 19 10.4477 19 11C19 11.5523 19.4477 12 20 12C20.5523 12 21 11.5523 21 11Z" fill="black"/>
      <path d="M19.9295 14.2679C20.4078 14.5441 20.5716 15.1557 20.2955 15.634C20.0193 16.1123 19.4078 16.2761 18.9295 16C18.4512 15.7238 18.2873 15.1123 18.5634 14.634C18.8396 14.1557 19.4512 13.9918 19.9295 14.2679Z" fill="black"/>
      <path d="M17.3676 19.2942C17.8459 19.0181 18.0098 18.4065 17.7336 17.9282C17.4575 17.4499 16.8459 17.286 16.3676 17.5621C15.8893 17.8383 15.7254 18.4499 16.0016 18.9282C16.2777 19.4065 16.8893 19.5703 17.3676 19.2942Z" fill="black"/>
      <path d="M18.9269 7.99998C18.4487 8.27612 17.8371 8.11225 17.5609 7.63396C17.2848 7.15566 17.4487 6.54407 17.9269 6.26793C18.4052 5.99179 19.0168 6.15566 19.293 6.63396C19.5691 7.11225 19.4052 7.72384 18.9269 7.99998Z" fill="black"/>
    </symbol>
    <symbol id="icon-arrow-box-left" viewBox="0 0 24 24">
      <path d="M11.25 20H7C5.34315 20 4 18.6569 4 17L4 7C4 5.34315 5.34315 4 7 4L11.25 4M20 12L8.75 12M20 12L15.5 16.5M20 12L15.5 7.5" stroke="black" stroke-width="2" stroke-linecap="round" stroke-linejoin="round"/>
    </symbol>
    <symbol id="icon-arrow-down" viewBox="0 0 24 24">
      <path d="M18 14L12 20L6 14M12 19V4" stroke="black" stroke-width="2" stroke-linecap="round" stroke-linejoin="round"/>
    </symbol>
    <symbol id="icon-arrow-inbox" viewBox="0 0 24 24">
      <path d="M20 15V17C20 18.6569 18.6569 20 17 20H7C5.34315 20 4 18.6569 4 17V15M12 14.5V4M12 14.5L8.5 11M12 14.5L15.5 11" stroke="black" stroke-width="2" stroke-linecap="round" stroke-linejoin="round"/>
    </symbol>
    <symbol id="icon-arrow-left" viewBox="0 0 24 24">
      <path d="M10 6L4 12L10 18M5 12H20" stroke="black" stroke-width="2" stroke-linecap="round" stroke-linejoin="round"/>
    </symbol>
    <symbol id="icon-arrow-out-of-box" viewBox="0 0 24 24">
      <path d="M20 12.75V17C20 18.6569 18.6569 20 17 20H7C5.34315 20 4 18.6569 4 17V12.75M12 4V15.25M12 4L16.5 8.5M12 4L7.5 8.5" stroke="black" stroke-width="2" stroke-linecap="round" stroke-linejoin="round"/>
    </symbol>
    <symbol id="icon-arrow-rotate-counter-clockwise" viewBox="0 0 24 24">
      <path d="M4.4834 14.6667C5.58163 17.7738 8.54493 20 12.0282 20C16.4465 20 20.0282 16.4183 20.0282 12C20.0282 7.58172 16.4465 4 12.0282 4C9.14453 4 7.27034 5.30135 5.41072 7.5M4.99986 4V7C4.99986 7.55228 5.44758 8 5.99986 8H8.99986" stroke="black" stroke-width="2" stroke-linecap="round" stroke-linejoin="round"/>
    </symbol>
    <symbol id="icon-arrow-undo-down" viewBox="0 0 24 24">
      <path d="M6.50002 19L3.56068 16.0607C2.97489 15.4749 2.97489 14.5251 3.56068 13.9393L6.50002 11M4.00002 15H16.5C18.9853 15 21 12.9853 21 10.5C21 8.01472 18.9853 6 16.5 6H12" stroke="black" stroke-width="2" stroke-linecap="round" stroke-linejoin="round"/>
    </symbol>
    <symbol id="icon-arrow-up" viewBox="0 0 24 24">
      <path d="M6 10L12 4L18 10M12 5V20" stroke="black" stroke-width="2" stroke-linecap="round" stroke-linejoin="round"/>
    </symbol>
    <symbol id="icon-arrows-repeat-circle" viewBox="0 0 24 24">
      <path d="M11.7071 22.7071C11.3166 23.0976 10.6834 23.0976 10.2929 22.7071C9.90237 22.3166 9.90237 21.6834 10.2929 21.2929L11.7071 22.7071ZM14 19L14.7071 18.2929C15.0976 18.6834 15.0976 19.3166 14.7071 19.7071L14 19ZM10.2929 16.7071C9.90237 16.3166 9.90237 15.6834 10.2929 15.2929C10.6834 14.9024 11.3166 14.9024 11.7071 15.2929L10.2929 16.7071ZM13.7071 7.29289C14.0976 7.68342 14.0976 8.31658 13.7071 8.70711C13.3166 9.09763 12.6834 9.09763 12.2929 8.70711L13.7071 7.29289ZM10 5L9.29289 5.70711C8.90237 5.31658 8.90237 4.68342 9.29289 4.29289L10 5ZM12.2929 1.29289C12.6834 0.902369 13.3166 0.902369 13.7071 1.29289C14.0976 1.68342 14.0976 2.31658 13.7071 2.70711L12.2929 1.29289ZM19.7142 17.5989C19.3277 17.9934 18.6946 17.9998 18.3001 17.6132C17.9056 17.2267 17.8992 16.5936 18.2858 16.1991L19.7142 17.5989ZM13 18C13.5523 18 14 18.4477 14 19C14 19.5523 13.5523 20 13 20V18ZM4.28576 6.40112C4.6723 6.00665 5.30544 6.00023 5.6999 6.38678C6.09436 6.77332 6.10079 7.40645 5.71424 7.80092L4.28576 6.40112ZM11 22L10.2929 21.2929L13.2929 18.2929L14 19L14.7071 19.7071L11.7071 22.7071L11 22ZM14 19L13.2929 19.7071L10.2929 16.7071L11 16L11.7071 15.2929L14.7071 18.2929L14 19ZM13 8L12.2929 8.70711L9.29289 5.70711L10 5L10.7071 4.29289L13.7071 7.29289L13 8ZM10 5L9.29289 4.29289L12.2929 1.29289L13 2L13.7071 2.70711L10.7071 5.70711L10 5ZM14 5V6H11V5V4H14V5ZM21 12H20C20 8.6863 17.3137 6 14 6V5V4C18.4183 4 22 7.58173 22 12H21ZM21 12H22C22 14.1794 21.1272 16.157 19.7142 17.5989L19 16.899L18.2858 16.1991C19.3472 15.1159 20 13.6352 20 12H21ZM10 19V18H13V19V20H10V19ZM3 12H4C4 15.3137 6.68629 18 10 18V19V20C5.58172 20 2 16.4183 2 12H3ZM3 12H2C2 9.82057 2.87283 7.84299 4.28576 6.40112L5 7.10102L5.71424 7.80092C4.65279 8.88411 4 10.3648 4 12H3Z" fill="black"/>
    </symbol>
    <symbol id="icon-asterisk" viewBox="0 0 24 24">
      <path d="M11.998 3V21M4.20382 7.5L19.7923 16.5M4.20312 16.5L19.7916 7.5" stroke="black" stroke-width="2" stroke-linecap="round"/>
    </symbol>
    <symbol id="icon-atom" viewBox="0 0 24 24">
      <path d="M19.4739 4.52612C21.0463 6.09858 18.9749 10.7195 14.8472 14.8472C10.7195 18.9749 6.09858 21.0463 4.52612 19.4739C2.95366 17.9014 5.0251 13.2805 9.15281 9.15281C13.2805 5.0251 17.9014 2.95366 19.4739 4.52612Z" stroke="black" stroke-width="2"/>
      <path d="M19.4739 19.4739C17.9014 21.0463 13.2805 18.9749 9.15281 14.8472C5.0251 10.7195 2.95366 6.09858 4.52612 4.52612C6.09858 2.95366 10.7195 5.0251 14.8472 9.15281C18.9749 13.2805 21.0463 17.9014 19.4739 19.4739Z" stroke="black" stroke-width="2"/>
    </symbol>
    <symbol id="icon-bubbles" viewBox="0 0 24 24">
      <path d="M17 14H18.5022C19.8829 14 21.0022 12.8807 21.0022 11.5V6.5C21.0022 5.11929 19.8829 4 18.5022 4H9.5022C8.12148 4 7.0022 5.11929 7.0022 6.5V8M14.5022 8H5.5022C4.12148 8 3.0022 9.11929 3.0022 10.5V15.5C3.0022 16.8807 4.12149 18 5.5022 18H6.0022V20.5L10.5022 18H14.5022C15.8829 18 17.0022 16.8807 17.0022 15.5V10.5C17.0022 9.11929 15.8829 8 14.5022 8Z" stroke="black" stroke-width="2" stroke-linecap="round" stroke-linejoin="round"/>
    </symbol>
    <symbol id="icon-camera-1" viewBox="0 0 24 24">
      <path d="M3 17V9.93125C3 8.31236 4.31236 7 5.93125 7C6.91132 7 7.82654 6.51019 8.37019 5.69472L8.6094 5.3359C9.1658 4.5013 10.1025 4 11.1056 4H12.8944C13.8975 4 14.8342 4.5013 15.3906 5.3359L15.6298 5.69472C16.1735 6.51019 17.0887 7 18.0688 7C19.6876 7 21 8.31236 21 9.93124V17C21 18.6569 19.6569 20 18 20H6C4.34315 20 3 18.6569 3 17Z" stroke="black" stroke-width="2" stroke-linecap="square" stroke-linejoin="round"/>
      <path d="M15 13C15 14.6569 13.6569 16 12 16C10.3431 16 9 14.6569 9 13C9 11.3431 10.3431 10 12 10C13.6569 10 15 11.3431 15 13Z" stroke="black" stroke-width="2" stroke-linecap="square" stroke-linejoin="round"/>
    </symbol>
    <symbol id="icon-car" viewBox="0 0 24 24">
      <path d="M2 10.5L5.10147 6.23548C5.666 5.45925 6.56786 5 7.52767 5H16.4425C17.419 5 18.3343 5.47521 18.8962 6.27383L22 10.6857M2 10.5H1M2 10.5V17C2 18.1046 2.89543 19 4 19C5.10457 19 6 18.1046 6 17H18C18 18.1046 18.8954 19 20 19C21.1046 19 22 18.1046 22 17V10.6857M22 10.6857H23M6 13H8M16 13H18" stroke="black" stroke-width="2" stroke-linecap="round" stroke-linejoin="round"/>
    </symbol>
    <symbol id="icon-checkmark-2" viewBox="0 0 24 24">
      <path d="M3 15L9.29412 20L21 4" stroke="black" stroke-width="2" stroke-linecap="round" stroke-linejoin="round"/>
    </symbol>
    <symbol id="icon-chevron-bottom" viewBox="0 0 24 24">
      <path d="M20 9L14.1213 14.8787C12.9498 16.0503 11.0503 16.0503 9.8787 14.8787L4 9" stroke="black" stroke-width="2" stroke-linecap="round" stroke-linejoin="round"/>
    </symbol>
    <symbol id="icon-chevron-left" viewBox="0 0 24 24">
      <path d="M15 20L9.12136 14.1213C7.94978 12.9498 7.94978 11.0503 9.12135 9.8787L15 4" stroke="black" stroke-width="2" stroke-linecap="round" stroke-linejoin="round"/>
    </symbol>
    <symbol id="icon-chevron-right" viewBox="0 0 24 24">
      <path d="M9 4L14.8787 9.87866C16.0503 11.0502 16.0503 12.9497 14.8787 14.1213L9 20" stroke="black" stroke-width="2" stroke-linecap="round" stroke-linejoin="round"/>
    </symbol>
    <symbol id="icon-chevron-top" viewBox="0 0 24 24">
      <path d="M4 15L9.87866 9.12133C11.0502 7.94975 12.9497 7.94975 14.1213 9.12132L20 15" stroke="black" stroke-width="2" stroke-linecap="round" stroke-linejoin="round"/>
    </symbol>
    <symbol id="icon-circle-check" viewBox="0 0 24 24">
      <path d="M15 9.5L10.5 15L8.5 13M21 12C21 16.9706 16.9706 21 12 21C7.02944 21 3 16.9706 3 12C3 7.02944 7.02944 3 12 3C16.9706 3 21 7.02944 21 12Z" stroke="black" stroke-width="2" stroke-linecap="round" stroke-linejoin="round"/>
    </symbol>
    <symbol id="icon-circle-placeholder-on" viewBox="0 0 24 24">
      <path d="M21 12C21 16.9706 16.9706 21 12 21C7.02944 21 3 16.9706 3 12C3 7.02944 7.02944 3 12 3C16.9706 3 21 7.02944 21 12Z" stroke="black" stroke-width="2"/>
    </symbol>
    <symbol id="icon-cross-large" viewBox="0 0 24 24">
      <path d="M5 5L19 19M19 5L5 19" stroke="black" stroke-width="2" stroke-linecap="round"/>
    </symbol>
    <symbol id="icon-dot-grid-1x3-horizontal" viewBox="0 0 24 24">
      <path d="M12 13C12.5523 13 13 12.5523 13 12C13 11.4477 12.5523 11 12 11C11.4477 11 11 11.4477 11 12C11 12.5523 11.4477 13 12 13Z" stroke="black" stroke-width="2" stroke-linecap="round" stroke-linejoin="round"/>
      <path d="M20 13C20.5523 13 21 12.5523 21 12C21 11.4477 20.5523 11 20 11C19.4477 11 19 11.4477 19 12C19 12.5523 19.4477 13 20 13Z" stroke="black" stroke-width="2" stroke-linecap="round" stroke-linejoin="round"/>
      <path d="M4 13C4.55228 13 5 12.5523 5 12C5 11.4477 4.55228 11 4 11C3.44772 11 3 11.4477 3 12C3 12.5523 3.44772 13 4 13Z" stroke="black" stroke-width="2" stroke-linecap="round" stroke-linejoin="round"/>
    </symbol>
    <symbol id="icon-edit-big" viewBox="0 0 24 24">
      <path d="M11 5.00001C11.5523 5.00001 12 4.5523 12 4.00001C12 3.44773 11.5523 3.00001 11 3.00001V5.00001ZM21 13C21 12.4477 20.5523 12 20 12C19.4477 12 19 12.4477 19 13H21ZM5.63803 19.673L6.09202 18.782H6.09202L5.63803 19.673ZM4.32698 18.362L3.43597 18.816H3.43597L4.32698 18.362ZM18.362 19.673L17.908 18.782H17.908L18.362 19.673ZM19.673 18.362L18.782 17.908V17.908L19.673 18.362ZM4.32698 5.63804L5.21799 6.09203L4.32698 5.63804ZM5.63803 4.32699L6.09202 5.218L5.63803 4.32699ZM9 15H8C8 15.5523 8.44772 16 9 16V15ZM9.29289 11.7071L10 12.4142L9.29289 11.7071ZM17.25 3.75001L16.5429 3.04291V3.04291L17.25 3.75001ZM20.25 6.75001L19.5429 6.04291V6.04291L20.25 6.75001ZM12.2929 14.7071L13 15.4142V15.4142L12.2929 14.7071ZM20.25 3.75001L19.5429 4.45712L20.25 3.75001ZM15.2 20V19H8.8V20V21H15.2V20ZM4 15.2H5V8.80001H4H3V15.2H4ZM8.8 4.00001V5.00001H11V4.00001V3.00001H8.8V4.00001ZM20 13H19V15.2H20H21V13H20ZM8.8 20V19C7.94342 19 7.36113 18.9992 6.91104 18.9625C6.47262 18.9266 6.24842 18.8617 6.09202 18.782L5.63803 19.673L5.18404 20.564C5.66937 20.8113 6.18608 20.9099 6.74817 20.9558C7.2986 21.0008 7.97642 21 8.8 21V20ZM4 15.2H3C3 16.0236 2.99922 16.7014 3.04419 17.2518C3.09012 17.8139 3.18868 18.3306 3.43597 18.816L4.32698 18.362L5.21799 17.908C5.1383 17.7516 5.07337 17.5274 5.03755 17.089C5.00078 16.6389 5 16.0566 5 15.2H4ZM5.63803 19.673L6.09202 18.782C5.7157 18.5903 5.40973 18.2843 5.21799 17.908L4.32698 18.362L3.43597 18.816C3.81947 19.5686 4.43139 20.1805 5.18404 20.564L5.63803 19.673ZM15.2 20V21C16.0236 21 16.7014 21.0008 17.2518 20.9558C17.8139 20.9099 18.3306 20.8113 18.816 20.564L18.362 19.673L17.908 18.782C17.7516 18.8617 17.5274 18.9266 17.089 18.9625C16.6389 18.9992 16.0566 19 15.2 19V20ZM20 15.2H19C19 16.0566 18.9992 16.6389 18.9624 17.089C18.9266 17.5274 18.8617 17.7516 18.782 17.908L19.673 18.362L20.564 18.816C20.8113 18.3306 20.9099 17.8139 20.9558 17.2518C21.0008 16.7014 21 16.0236 21 15.2H20ZM18.362 19.673L18.816 20.564C19.5686 20.1805 20.1805 19.5686 20.564 18.816L19.673 18.362L18.782 17.908C18.5903 18.2843 18.2843 18.5903 17.908 18.782L18.362 19.673ZM4 8.80001H5C5 7.94343 5.00078 7.36114 5.03755 6.91105C5.07337 6.47264 5.1383 6.24843 5.21799 6.09203L4.32698 5.63804L3.43597 5.18405C3.18868 5.66939 3.09012 6.18609 3.04419 6.74819C2.99922 7.29861 3 7.97643 3 8.80001H4ZM8.8 4.00001V3.00001C7.97642 3.00001 7.2986 2.99923 6.74817 3.04421C6.18608 3.09013 5.66937 3.1887 5.18404 3.43599L5.63803 4.32699L6.09202 5.218C6.24842 5.13831 6.47262 5.07338 6.91104 5.03756C7.36113 5.00079 7.94342 5.00001 8.8 5.00001V4.00001ZM4.32698 5.63804L5.21799 6.09203C5.40973 5.71571 5.71569 5.40975 6.09202 5.218L5.63803 4.32699L5.18404 3.43599C4.43139 3.81948 3.81947 4.4314 3.43597 5.18405L4.32698 5.63804ZM9 12.4142H8V15H9H10V12.4142H9ZM9 15V16H11.5858V15V14H9V15ZM9.29289 11.7071L10 12.4142L17.9571 4.45712L17.25 3.75001L16.5429 3.04291L8.58579 11L9.29289 11.7071ZM20.25 6.75001L19.5429 6.04291L11.5858 14L12.2929 14.7071L13 15.4142L20.9571 7.45712L20.25 6.75001ZM20.25 3.75001L19.5429 4.45712C19.9808 4.89502 19.9808 5.605 19.5429 6.04291L20.25 6.75001L20.9571 7.45712C22.1761 6.23817 22.1761 4.26186 20.9571 3.04291L20.25 3.75001ZM17.25 3.75001L17.9571 4.45712C18.395 4.01922 19.105 4.01922 19.5429 4.45712L20.25 3.75001L20.9571 3.04291C19.7382 1.82395 17.7618 1.82396 16.5429 3.04291L17.25 3.75001ZM11.5858 15V16C12.1162 16 12.6249 15.7893 13 15.4142L12.2929 14.7071L11.5858 14L11.5858 14V15ZM9 12.4142H10L9.29289 11.7071L8.58579 11C8.21071 11.3751 8 11.8838 8 12.4142H9Z" fill="black"/>
    </symbol>
    <symbol id="icon-food-experiences" viewBox="0 0 24 24">
      <path d="M9.4 4.5H9.5H9.6M10 4.5C10 4.77614 9.77614 5 9.5 5C9.22386 5 9 4.77614 9 4.5C9 4.22386 9.22386 4 9.5 4C9.77614 4 10 4.22386 10 4.5Z" stroke="black" stroke-width="2" stroke-linecap="round" stroke-linejoin="round"/>
      <path d="M12 19C18 19 20 16 20 16H4C4 16 6 19 12 19Z" stroke="black" stroke-width="2" stroke-linecap="round" stroke-linejoin="round"/>
      <path d="M10 20H14" stroke="black" stroke-width="2" stroke-linecap="round" stroke-linejoin="round"/>
      <path d="M14.8333 6.83333L16.25 4L17.6667 6.83333L20.5 8.25L17.6667 9.66667L16.25 12.5L14.8333 9.66667L12 8.25L14.8333 6.83333Z" stroke="black" stroke-width="2" stroke-linecap="round" stroke-linejoin="round"/>
      <path d="M6.36426 8.96484C6.5094 9.25513 6.74486 9.4906 7.03516 9.63574L7.76367 10L7.03516 10.3643C6.74487 10.5094 6.5094 10.7449 6.36426 11.0352L6 11.7637L5.63574 11.0352L5.57715 10.9287C5.43089 10.6873 5.2188 10.4912 4.96484 10.3643L4.23633 10L4.96484 9.63574C5.25513 9.4906 5.4906 9.25514 5.63574 8.96484L6 8.23633L6.36426 8.96484Z" stroke="black" stroke-width="2" stroke-linecap="square" stroke-linejoin="round"/>
    </symbol>
    <symbol id="icon-globus" viewBox="0 0 24 24">
      <path d="M21 12C21 16.9706 16.9706 21 12 21M21 12C21 7.02944 16.9706 3 12 3M21 12H3M12 21C7.02944 21 3 16.9706 3 12M12 21C9.79086 21 8 16.9706 8 12C8 7.02944 9.79086 3 12 3M12 21C14.2091 21 16 16.9706 16 12C16 7.02944 14.2091 3 12 3M3 12C3 7.02944 7.02944 3 12 3" stroke="black" stroke-width="2" stroke-linecap="square"/>
    </symbol>
    <symbol id="icon-group-2" viewBox="0 0 24 24">
      <path d="M15.2742 13.1471C17.7475 12.5458 20.5078 13.7876 21.7955 16.8725C22.4657 18.4782 21.0208 20 19.2809 20H17M10.5 7C10.5 8.65685 9.15689 10 7.50003 10C5.84318 10 4.50003 8.65685 4.50003 7C4.50003 5.34315 5.84318 4 7.50003 4C9.15689 4 10.5 5.34315 10.5 7ZM19.5 7C19.5 8.65685 18.1569 10 16.5 10C14.8432 10 13.5 8.65685 13.5 7C13.5 5.34315 14.8432 4 16.5 4C18.1569 4 19.5 5.34315 19.5 7ZM10.2811 20H4.71895C2.97903 20 1.53438 18.4769 2.20487 16.8713C4.36044 11.7096 10.6396 11.7096 12.7952 16.8713C13.4657 18.4769 12.021 20 10.2811 20Z" stroke="black" stroke-width="2" stroke-linecap="round" stroke-linejoin="round"/>
    </symbol>
    <symbol id="icon-image-sparkle" viewBox="0 0 24 24">
      <path d="M13.5745 8.35093L14.0528 7.39443C14.237 7.0259 14.763 7.0259 14.9472 7.39443L15.4255 8.35093C15.4738 8.44769 15.5523 8.52615 15.6491 8.57454L16.6056 9.05279C16.9741 9.23705 16.9741 9.76295 16.6056 9.94721L15.6491 10.4255C15.5523 10.4738 15.4738 10.5523 15.4255 10.6491L14.9472 11.6056C14.763 11.9741 14.237 11.9741 14.0528 11.6056L13.5745 10.6491C13.5262 10.5523 13.4477 10.4738 13.3509 10.4255L12.3944 9.94721C12.0259 9.76295 12.0259 9.23705 12.3944 9.05279L13.3509 8.57454C13.4477 8.52615 13.5262 8.44769 13.5745 8.35093Z" fill="black"/>
      <path fill-rule="evenodd" clip-rule="evenodd" d="M3 7C3 4.79086 4.79086 3 7 3H17C19.2091 3 21 4.79086 21 7V17C21 19.2091 19.2091 21 17 21H7C4.79086 21 3 19.2091 3 17V7ZM7 5C5.89543 5 5 5.89543 5 7V13.5858L5.17157 13.4142C6.73367 11.8521 9.26633 11.8521 10.8284 13.4142L16.4142 19H17C18.1046 19 19 18.1046 19 17V7C19 5.89543 18.1046 5 17 5H7ZM13.5858 19L9.41421 14.8284C8.63316 14.0474 7.36684 14.0474 6.58579 14.8284L5 16.4142V17C5 18.1046 5.89543 19 7 19H13.5858Z" fill="black"/>
    </symbol>
    <symbol id="icon-layout-grid-2" viewBox="0 0 24 24">
      <path d="M4 8.8C4 7.11984 4 6.27976 4.32698 5.63803C4.6146 5.07354 5.07354 4.6146 5.63803 4.32698C6.27976 4 7.11984 4 8.8 4H10V10H4V8.8Z" stroke="black" stroke-width="2" stroke-linecap="round" stroke-linejoin="round"/>
      <path d="M14 4H15.2C16.8802 4 17.7202 4 18.362 4.32698C18.9265 4.6146 19.3854 5.07354 19.673 5.63803C20 6.27976 20 7.11984 20 8.8V10H14V4Z" stroke="black" stroke-width="2" stroke-linecap="round" stroke-linejoin="round"/>
      <path d="M4 14H10V20H8.8C7.11984 20 6.27976 20 5.63803 19.673C5.07354 19.3854 4.6146 18.9265 4.32698 18.362C4 17.7202 4 16.8802 4 15.2V14Z" stroke="black" stroke-width="2" stroke-linecap="round" stroke-linejoin="round"/>
      <path d="M14 14H20V15.2C20 16.8802 20 17.7202 19.673 18.362C19.3854 18.9265 18.9265 19.3854 18.362 19.673C17.7202 20 16.8802 20 15.2 20H14V14Z" stroke="black" stroke-width="2" stroke-linecap="round" stroke-linejoin="round"/>
    </symbol>
    <symbol id="icon-layout-left" viewBox="0 0 24 24">
      <path d="M5.63803 19.673L6.09202 18.782H6.09202L5.63803 19.673ZM4.32698 18.362L3.43597 18.816H3.43597L4.32698 18.362ZM19.673 18.362L18.782 17.908V17.908L19.673 18.362ZM18.362 19.673L17.908 18.782H17.908L18.362 19.673ZM19.673 5.63803L18.782 6.09202V6.09202L19.673 5.63803ZM18.362 4.32698L18.816 3.43597V3.43597L18.362 4.32698ZM4.32698 5.63803L5.21799 6.09202L4.32698 5.63803ZM5.63803 4.32698L6.09202 5.21799L5.63803 4.32698ZM11 4V3H9V4H11ZM9 20V21H11V20H9ZM20 8.8H19V15.2H20H21V8.8H20ZM15.2 20V19H8.8V20V21H15.2V20ZM4 15.2H5V8.8H4H3V15.2H4ZM8.8 4V5H15.2V4V3H8.8V4ZM8.8 20V19C7.94342 19 7.36113 18.9992 6.91104 18.9624C6.47262 18.9266 6.24842 18.8617 6.09202 18.782L5.63803 19.673L5.18404 20.564C5.66937 20.8113 6.18608 20.9099 6.74817 20.9558C7.2986 21.0008 7.97642 21 8.8 21V20ZM4 15.2H3C3 16.0236 2.99922 16.7014 3.04419 17.2518C3.09012 17.8139 3.18868 18.3306 3.43597 18.816L4.32698 18.362L5.21799 17.908C5.1383 17.7516 5.07337 17.5274 5.03755 17.089C5.00078 16.6389 5 16.0566 5 15.2H4ZM5.63803 19.673L6.09202 18.782C5.7157 18.5903 5.40973 18.2843 5.21799 17.908L4.32698 18.362L3.43597 18.816C3.81947 19.5686 4.43139 20.1805 5.18404 20.564L5.63803 19.673ZM20 15.2H19C19 16.0566 18.9992 16.6389 18.9624 17.089C18.9266 17.5274 18.8617 17.7516 18.782 17.908L19.673 18.362L20.564 18.816C20.8113 18.3306 20.9099 17.8139 20.9558 17.2518C21.0008 16.7014 21 16.0236 21 15.2H20ZM15.2 20V21C16.0236 21 16.7014 21.0008 17.2518 20.9558C17.8139 20.9099 18.3306 20.8113 18.816 20.564L18.362 19.673L17.908 18.782C17.7516 18.8617 17.5274 18.9266 17.089 18.9624C16.6389 18.9992 16.0566 19 15.2 19V20ZM19.673 18.362L18.782 17.908C18.5903 18.2843 18.2843 18.5903 17.908 18.782L18.362 19.673L18.816 20.564C19.5686 20.1805 20.1805 19.5686 20.564 18.816L19.673 18.362ZM20 8.8H21C21 7.97642 21.0008 7.2986 20.9558 6.74817C20.9099 6.18608 20.8113 5.66937 20.564 5.18404L19.673 5.63803L18.782 6.09202C18.8617 6.24842 18.9266 6.47262 18.9624 6.91104C18.9992 7.36113 19 7.94342 19 8.8H20ZM15.2 4V5C16.0566 5 16.6389 5.00078 17.089 5.03755C17.5274 5.07337 17.7516 5.1383 17.908 5.21799L18.362 4.32698L18.816 3.43597C18.3306 3.18868 17.8139 3.09012 17.2518 3.04419C16.7014 2.99922 16.0236 3 15.2 3V4ZM19.673 5.63803L20.564 5.18404C20.1805 4.43139 19.5686 3.81947 18.816 3.43597L18.362 4.32698L17.908 5.21799C18.2843 5.40973 18.5903 5.7157 18.782 6.09202L19.673 5.63803ZM4 8.8H5C5 7.94342 5.00078 7.36113 5.03755 6.91104C5.07337 6.47262 5.1383 6.24842 5.21799 6.09202L4.32698 5.63803L3.43597 5.18404C3.18868 5.66937 3.09012 6.18608 3.04419 6.74817C2.99922 7.2986 3 7.97642 3 8.8H4ZM8.8 4V3C7.97642 3 7.2986 2.99922 6.74817 3.04419C6.18608 3.09012 5.66937 3.18868 5.18404 3.43597L5.63803 4.32698L6.09202 5.21799C6.24842 5.1383 6.47262 5.07337 6.91104 5.03755C7.36113 5.00078 7.94342 5 8.8 5V4ZM4.32698 5.63803L5.21799 6.09202C5.40973 5.71569 5.71569 5.40973 6.09202 5.21799L5.63803 4.32698L5.18404 3.43597C4.43139 3.81947 3.81947 4.43139 3.43597 5.18404L4.32698 5.63803ZM10 4H9V20H10H11V4H10Z" fill="black"/>
    </symbol>
    <symbol id="icon-magic-edit" viewBox="0 0 24 24">
      <path d="M4 20V17.2426C4 16.447 4.31607 15.6839 4.87868 15.1213L15 5C16.1046 3.89543 17.8954 3.89543 19 5C20.1046 6.10457 20.1046 7.89543 19 9L8.87868 19.1213C8.31607 19.6839 7.55301 20 6.75736 20H4Z" stroke="black" stroke-width="2" stroke-linecap="round" stroke-linejoin="round"/>
      <path d="M4.75518 5.15769C4.65005 4.94744 4.35001 4.94744 4.24488 5.15769L3.59168 6.4641C3.56407 6.51931 3.51931 6.56407 3.4641 6.59168L2.15769 7.24488C1.94744 7.35001 1.94744 7.65005 2.15769 7.75518L3.4641 8.40839C3.51931 8.43599 3.56407 8.48075 3.59168 8.53596L4.24488 9.84237C4.35001 10.0526 4.65005 10.0526 4.75518 9.84237L5.40839 8.53596C5.43599 8.48075 5.48075 8.43599 5.53596 8.40839L6.84237 7.75518C7.05262 7.65005 7.05262 7.35001 6.84237 7.24488L5.53596 6.59168C5.48075 6.56407 5.43599 6.51931 5.40839 6.4641L4.75518 5.15769Z" fill="black"/>
      <path d="M9.26447 2.16345C9.1555 1.94552 8.8445 1.94552 8.73553 2.16345L8.25558 3.12335C8.22697 3.18057 8.18057 3.22697 8.12335 3.25558L7.16345 3.73553C6.94552 3.8445 6.94552 4.1555 7.16345 4.26447L8.12335 4.74442C8.18057 4.77303 8.22697 4.81943 8.25558 4.87665L8.73553 5.83655C8.8445 6.05448 9.1555 6.05448 9.26447 5.83655L9.74442 4.87665C9.77303 4.81943 9.81943 4.77303 9.87665 4.74442L10.8365 4.26447C11.0545 4.1555 11.0545 3.8445 10.8365 3.73553L9.87665 3.25558C9.81943 3.22697 9.77303 3.18057 9.74442 3.12335L9.26447 2.16345Z" fill="black"/>
      <path d="M18.7551 15.1577C18.65 14.9474 18.35 14.9474 18.2449 15.1577L17.5917 16.4641C17.5641 16.5193 17.5193 16.5641 17.4641 16.5917L16.1577 17.2449C15.9474 17.35 15.9474 17.65 16.1577 17.7551L17.4641 18.4083C17.5193 18.4359 17.5641 18.4807 17.5917 18.5359L18.2449 19.8423C18.35 20.0526 18.65 20.0526 18.7551 19.8423L19.4083 18.5359C19.4359 18.4807 19.4807 18.4359 19.5359 18.4083L20.8423 17.7551C21.0526 17.65 21.0526 17.35 20.8423 17.2449L19.5359 16.5917C19.4807 16.5641 19.4359 16.5193 19.4083 16.4641L18.7551 15.1577Z" fill="black"/>
    </symbol>
    <symbol id="icon-magnifying-glass-2" viewBox="0 0 24 24">
      <path d="M20 20L16.05 16.05M18 11C18 14.866 14.866 18 11 18C7.13401 18 4 14.866 4 11C4 7.13401 7.13401 4 11 4C14.866 4 18 7.13401 18 11Z" stroke="black" stroke-width="2" stroke-linecap="round"/>
    </symbol>
    <symbol id="icon-map-pin" viewBox="0 0 24 24">
      <path d="M14.4978 10C14.4978 11.3807 13.3785 12.5 11.9978 12.5C10.6171 12.5 9.4978 11.3807 9.4978 10C9.4978 8.61929 10.6171 7.5 11.9978 7.5C13.3785 7.5 14.4978 8.61929 14.4978 10Z" stroke="black" stroke-width="2" stroke-linejoin="round"/>
      <path d="M19 10C19 13.9981 15.7482 17.6561 13.6773 19.5804C12.7179 20.4718 11.2821 20.4718 10.3227 19.5804C8.25176 17.6561 5 13.9981 5 10C5 6.13401 8.13401 3 12 3C15.866 3 19 6.13401 19 10Z" stroke="black" stroke-width="2" stroke-linejoin="round"/>
    </symbol>
    <symbol id="icon-microphone" viewBox="0 0 24 24">
      <path d="M12 19V21M12 19C8.32179 19 6.14683 16.7451 5.01434 15M12 19C15.6782 19 17.8532 16.7451 18.9857 15M16 7V11C16 13.2091 14.2092 15 12 15C9.79087 15 8.00001 13.2091 8.00001 11V7C8.00001 4.79086 9.79087 3 12 3C14.2092 3 16 4.79086 16 7Z" stroke="black" stroke-width="2" stroke-linecap="round" stroke-linejoin="round"/>
    </symbol>
    <symbol id="icon-minus-large" viewBox="0 0 24 24">
      <path d="M4 12H20" stroke="black" stroke-width="2" stroke-linecap="round"/>
    </symbol>
    <symbol id="icon-moon" viewBox="0 0 24 24">
      <path d="M12.0556 3.59971C12.2751 3.28123 12.2912 2.86472 12.097 2.53021C11.9028 2.19569 11.5332 2.00315 11.1477 2.03581C6.02531 2.46985 2.00391 6.76372 2.00391 11.9979C2.00391 17.5197 6.48022 21.996 12.002 21.996C17.2363 21.996 21.5303 17.9745 21.9641 12.8519C21.9968 12.4664 21.8042 12.0968 21.4697 11.9026C21.1352 11.7084 20.7187 11.7246 20.4002 11.9441C19.4341 12.61 18.2641 12.9998 17 12.9998C13.6863 12.9998 11 10.3135 11 6.99976C11 5.73577 11.3897 4.56582 12.0556 3.59971Z" fill="black"/>
    </symbol>
    <symbol id="icon-page-text-add" viewBox="0 0 24 24">
      <path d="M11 21H8C6.34315 21 5 19.6569 5 18V6C5 4.34315 6.34315 3 8 3H16C17.6569 3 19 4.34315 19 6V11M18 15V18M18 18V21M18 18H15M18 18H21M9 7H15M9 11H11" stroke="black" stroke-width="2" stroke-linecap="round" stroke-linejoin="round"/>
    </symbol>
    <symbol id="icon-paperclip-1" viewBox="0 0 24 24">
      <path d="M6 11V15C6 18.3137 8.68629 21 12 21C15.3137 21 18 18.3137 18 15V7C18 4.79086 16.2091 3 14 3C11.7909 3 10 4.79086 10 7V15C10 16.1046 10.8954 17 12 17C13.1046 17 14 16.1046 14 15V7" stroke="black" stroke-width="2" stroke-linecap="round"/>
    </symbol>
    <symbol id="icon-pencil" viewBox="0 0 24 24">
      <path d="M13.5 6L15.25 4.25001C16.4926 3.00736 18.5074 3.00736 19.75 4.25C20.9926 5.49264 20.9926 7.50736 19.75 8.75L18 10.5M13.5 6L3.29289 16.2071C3.10536 16.3946 3 16.649 3 16.9142V21H7.08579C7.351 21 7.60536 20.8946 7.79289 20.7071L18 10.5M13.5 6L18 10.5" stroke="black" stroke-width="2" stroke-linecap="round" stroke-linejoin="round"/>
    </symbol>
    <symbol id="icon-pencil" viewBox="0 0 24 24">
      <path d="M13.5 6L15.25 4.25001C16.4926 3.00736 18.5074 3.00736 19.75 4.25C20.9926 5.49264 20.9926 7.50736 19.75 8.75L18 10.5M13.5 6L3.29289 16.2071C3.10536 16.3946 3 16.649 3 16.9142V21H7.08579C7.351 21 7.60536 20.8946 7.79289 20.7071L18 10.5M13.5 6L18 10.5" stroke="black" stroke-width="2" stroke-linecap="round" stroke-linejoin="round"/>
    </symbol>
    <symbol id="icon-people-2" viewBox="0 0 24 24">
      <path d="M4 20V19C4 16.7909 5.79086 15 8 15H16C18.2091 15 20 16.7909 20 19V20M16.5 7.5C16.5 9.98528 14.4853 12 12 12C9.51472 12 7.5 9.98528 7.5 7.5C7.5 5.01472 9.51472 3 12 3C14.4853 3 16.5 5.01472 16.5 7.5Z" stroke="black" stroke-width="2" stroke-linecap="round"/>
    </symbol>
    <symbol id="icon-phone" viewBox="0 0 24 24">
      <path fill-rule="evenodd" clip-rule="evenodd" d="M5 5C5 2.79086 6.79086 1 9 1H15C17.2091 1 19 2.79086 19 5V19C19 21.2091 17.2091 23 15 23H9C6.79086 23 5 21.2091 5 19V5ZM10 18C9.44772 18 9 18.4477 9 19C9 19.5523 9.44772 20 10 20H14C14.5523 20 15 19.5523 15 19C15 18.4477 14.5523 18 14 18H10Z" fill="black"/>
    </symbol>
    <symbol id="icon-plus-large" viewBox="0 0 24 24">
      <path d="M12 4V12M12 12V20M12 12H4M12 12H20" stroke="black" stroke-width="2" stroke-linecap="round"/>
    </symbol>
    <symbol id="icon-receipt-bill" viewBox="0 0 24 24">
      <path d="M9 8H15M9 12H11M19 21V6C19 4.34315 17.6569 3 16 3H8C6.34315 3 5 4.34315 5 6V21L7.33333 19L9.66667 21L12 19L14.3333 21L16.6667 19L19 21Z" stroke="black" stroke-width="2" stroke-linecap="round" stroke-linejoin="round"/>
    </symbol>
    <symbol id="icon-robot" viewBox="0 0 24 24">
      <path d="M9 10C9 10.2761 8.77614 10.5 8.5 10.5C8.22386 10.5 8 10.2761 8 10M9 10C9 9.72386 8.77614 9.5 8.5 9.5C8.22386 9.5 8 9.72386 8 10M9 10H8M16 10C16 10.2761 15.7761 10.5 15.5 10.5C15.2239 10.5 15 10.2761 15 10M16 10C16 9.72386 15.7761 9.5 15.5 9.5C15.2239 9.5 15 9.72386 15 10M16 10H15M12 5V3M3.5 9C2.94772 9 2.5 9.44772 2.5 10C2.5 10.5523 2.94772 11 3.5 11M20.5 9C21.0523 9 21.5 9.44772 21.5 10C21.5 10.5523 21.0523 11 20.5 11M10 14.5H14M3.5 16V8C3.5 6.34315 4.84315 5 6.5 5H17.5C19.1569 5 20.5 6.34315 20.5 8V16C20.5 17.6569 19.1569 19 17.5 19H6.5C4.84315 19 3.5 17.6569 3.5 16Z" stroke="black" stroke-width="2" stroke-linecap="round" stroke-linejoin="round"/>
    </symbol>
    <symbol id="icon-search-menu" viewBox="0 0 24 24">
      <path d="M3.00391 12H5.00391M3.00391 7H6.00391M3.00391 17H6.00391M19.5 16.5L22 19M21.0039 12C21.0039 15.3137 18.3176 18 15.0039 18C11.6902 18 9.00391 15.3137 9.00391 12C9.00391 8.68629 11.6902 6 15.0039 6C18.3176 6 21.0039 8.68629 21.0039 12Z" stroke="black" stroke-width="2" stroke-linecap="round" stroke-linejoin="round"/>
    </symbol>
    <symbol id="icon-settings-gear-1" viewBox="0 0 24 24">
      <path d="M10.5293 3.82729C11.4425 3.31361 12.5576 3.31361 13.4708 3.82729L18.4708 6.63977C19.4155 7.17112 20.0001 8.17067 20.0001 9.2545L20.0001 14.7454C20.0001 15.8292 19.4155 16.8288 18.4708 17.3601L13.4707 20.1726C12.5575 20.6863 11.4425 20.6863 10.5293 20.1726L5.52935 17.3604C4.58466 16.8291 4.00004 15.8295 4.00004 14.7456L4.00004 9.25448C4.00004 8.17065 4.58463 7.17109 5.52927 6.63974L10.5293 3.82729Z" stroke="black" stroke-width="2" stroke-linecap="square" stroke-linejoin="round"/>
      <path d="M10.5292 3.82728C11.4425 3.3136 12.5575 3.3136 13.4708 3.82728L18.4708 6.63975C19.4154 7.17111 20 8.17066 20 9.25449V14.7454C20 15.8292 19.4154 16.8288 18.4708 17.3601L13.4707 20.1726C12.5575 20.6863 11.4425 20.6863 10.5293 20.1726L5.52931 17.3604C4.58463 16.8291 4 15.8295 4 14.7456L4 9.25447C4 8.17064 4.58459 7.17108 5.52924 6.63973L10.5292 3.82728Z" stroke="black" stroke-width="2" stroke-linecap="square" stroke-linejoin="round"/>
      <path d="M15 12C15 13.6568 13.6569 15 12 15C10.3432 15 9.00003 13.6568 9.00003 12C9.00003 10.3431 10.3432 8.99999 12 8.99999C13.6569 8.99999 15 10.3431 15 12Z" stroke="black" stroke-width="2" stroke-linecap="square" stroke-linejoin="round"/>
    </symbol>
    <symbol id="icon-shield-check-3" viewBox="0 0 24 24">
      <path d="M9 12L11 14L15 9.99999M10.7975 3.02606L5.79754 5.21356C4.70558 5.6913 4 6.77014 4 7.96204V13C4 17.4183 7.58172 21 12 21C16.4183 21 20 17.4183 20 13V7.96204C20 6.77014 19.2944 5.6913 18.2025 5.21356L13.2025 3.02606C12.4359 2.69069 11.5641 2.69069 10.7975 3.02606Z" stroke="black" stroke-width="2" stroke-linecap="round" stroke-linejoin="round"/>
    </symbol>
    <symbol id="icon-square-behind-square-2" viewBox="0 0 24 24">
      <path d="M9 15V18.75C9 19.9926 10.0074 21 11.25 21H18.75C19.9926 21 21 19.9926 21 18.75V11.25C21 10.0074 19.9926 9 18.75 9H15M12.75 15H5.25C4.00736 15 3 13.9926 3 12.75V5.25C3 4.00736 4.00736 3 5.25 3H12.75C13.9926 3 15 4.00736 15 5.25V12.75C15 13.9926 13.9926 15 12.75 15Z" stroke="black" stroke-width="2" stroke-linecap="round" stroke-linejoin="round"/>
    </symbol>
    <symbol id="icon-square-check" viewBox="0 0 24 24">
      <path fill-rule="evenodd" clip-rule="evenodd" d="M8.7587 3H15.2413C16.0463 2.99999 16.7106 2.99998 17.2518 3.0442C17.8139 3.09012 18.3306 3.18868 18.816 3.43598C19.5686 3.81947 20.1805 4.43139 20.564 5.18404C20.8113 5.66938 20.9099 6.18608 20.9558 6.74818C21 7.28937 21 7.95372 21 8.75868V15.2413C21 16.0463 21 16.7106 20.9558 17.2518C20.9099 17.8139 20.8113 18.3306 20.564 18.816C20.1805 19.5686 19.5686 20.1805 18.816 20.564C18.3306 20.8113 17.8139 20.9099 17.2518 20.9558C16.7106 21 16.0463 21 15.2413 21H8.75868C7.95372 21 7.28937 21 6.74818 20.9558C6.18608 20.9099 5.66938 20.8113 5.18404 20.564C4.43139 20.1805 3.81947 19.5686 3.43598 18.816C3.18868 18.3306 3.09012 17.8139 3.0442 17.2518C2.99998 16.7106 2.99999 16.0463 3 15.2413V8.75869C2.99999 7.95373 2.99998 7.28936 3.0442 6.74818C3.09012 6.18608 3.18868 5.66938 3.43598 5.18404C3.81947 4.43139 4.43139 3.81947 5.18404 3.43598C5.66938 3.18868 6.18608 3.09012 6.74818 3.0442C7.28936 2.99998 7.95375 2.99999 8.7587 3ZM16.2039 10.4571C16.5944 10.0666 16.5944 9.43343 16.2039 9.0429C15.8133 8.65238 15.1802 8.65238 14.7897 9.0429L10.9968 12.8358L9.70387 11.5429C9.31334 11.1524 8.68018 11.1524 8.28966 11.5429C7.89913 11.9334 7.89913 12.5666 8.28966 12.9571L10.2897 14.9571C10.6802 15.3476 11.3133 15.3476 11.7039 14.9571L16.2039 10.4571Z" fill="black"/>
    </symbol>
    <symbol id="icon-square-grid-circle" viewBox="0 0 24 24">
      <path d="M4 6C4 4.89543 4.89543 4 6 4H8C9.10457 4 10 4.89543 10 6V8C10 9.10457 9.10457 10 8 10H6C4.89543 10 4 9.10457 4 8V6Z" stroke="black" stroke-width="1.995" stroke-linecap="round" stroke-linejoin="round"/>
      <path d="M4 16C4 14.8954 4.89543 14 6 14H8C9.10457 14 10 14.8954 10 16V18C10 19.1046 9.10457 20 8 20H6C4.89543 20 4 19.1046 4 18V16Z" stroke="black" stroke-width="1.995" stroke-linecap="round" stroke-linejoin="round"/>
      <path d="M14 6C14 4.89543 14.8954 4 16 4H18C19.1046 4 20 4.89543 20 6V8C20 9.10457 19.1046 10 18 10H16C14.8954 10 14 9.10457 14 8V6Z" stroke="black" stroke-width="1.995" stroke-linecap="round" stroke-linejoin="round"/>
      <path d="M14 17C14 15.3431 15.3431 14 17 14C18.6569 14 20 15.3431 20 17C20 18.6569 18.6569 20 17 20C15.3431 20 14 18.6569 14 17Z" stroke="black" stroke-width="1.995" stroke-linecap="round" stroke-linejoin="round"/>
    </symbol>
    <symbol id="icon-square-placeholder" viewBox="0 0 24 24">
      <path d="M20 15.2V8.8C20 7.11984 20 6.27976 19.673 5.63803C19.3854 5.07354 18.9265 4.6146 18.362 4.32698C17.7202 4 16.8802 4 15.2 4H8.8C7.11984 4 6.27976 4 5.63803 4.32698C5.07354 4.6146 4.6146 5.07354 4.32698 5.63803C4 6.27976 4 7.11984 4 8.8V15.2C4 16.8802 4 17.7202 4.32698 18.362C4.6146 18.9265 5.07354 19.3854 5.63803 19.673C6.27976 20 7.11984 20 8.8 20H15.2C16.8802 20 17.7202 20 18.362 19.673C18.9265 19.3854 19.3854 18.9265 19.673 18.362C20 17.7202 20 16.8802 20 15.2Z" stroke="black" stroke-width="2" stroke-linecap="round" stroke-linejoin="round"/>
    </symbol>
    <symbol id="icon-sun" viewBox="0 0 24 24">
      <path d="M13 2C13 1.44772 12.5523 1 12 1C11.4477 1 11 1.44772 11 2V3C11 3.55228 11.4477 4 12 4C12.5523 4 13 3.55228 13 3V2Z" fill="black"/>
      <path d="M13 21C13 20.4477 12.5523 20 12 20C11.4477 20 11 20.4477 11 21V22C11 22.5523 11.4477 23 12 23C12.5523 23 13 22.5523 13 22V21Z" fill="black"/>
      <path d="M19.777 4.22295C20.1675 4.61347 20.1675 5.24664 19.777 5.63716L19.0669 6.34716C18.6764 6.73768 18.0433 6.73768 17.6527 6.34716C17.2622 5.95664 17.2622 5.32347 17.6527 4.93295L18.3627 4.22295C18.7533 3.83242 19.3864 3.83242 19.777 4.22295Z" fill="black"/>
      <path d="M6.34726 19.0671C6.73779 18.6766 6.73779 18.0434 6.34726 17.6529C5.95674 17.2624 5.32357 17.2624 4.93305 17.6529L4.22305 18.3629C3.83253 18.7534 3.83253 19.3866 4.22305 19.7771C4.61357 20.1676 5.24674 20.1676 5.63726 19.7771L6.34726 19.0671Z" fill="black"/>
      <path d="M20 12C20 11.4477 20.4477 11 21 11H22C22.5523 11 23 11.4477 23 12C23 12.5523 22.5523 13 22 13H21C20.4477 13 20 12.5523 20 12Z" fill="black"/>
      <path d="M2 11C1.44772 11 1 11.4477 1 12C1 12.5523 1.44772 13 2 13H3C3.55228 13 4 12.5523 4 12C4 11.4477 3.55228 11 3 11H2Z" fill="black"/>
      <path d="M17.6527 17.6529C18.0433 17.2624 18.6764 17.2624 19.0669 17.6529L19.777 18.3629C20.1675 18.7534 20.1675 19.3866 19.777 19.7771C19.3864 20.1676 18.7533 20.1676 18.3627 19.7771L17.6527 19.0671C17.2622 18.6766 17.2622 18.0434 17.6527 17.6529Z" fill="black"/>
      <path d="M5.63726 4.22295C5.24674 3.83242 4.61357 3.83242 4.22305 4.22295C3.83253 4.61347 3.83253 5.24664 4.22305 5.63716L4.93305 6.34716C5.32357 6.73768 5.95674 6.73768 6.34726 6.34716C6.73779 5.95664 6.73779 5.32347 6.34726 4.93295L5.63726 4.22295Z" fill="black"/>
      <path d="M7.75736 7.75736C10.1005 5.41421 13.8995 5.41421 16.2426 7.75736C18.5858 10.1005 18.5858 13.8995 16.2426 16.2426C13.8995 18.5858 10.1005 18.5858 7.75736 16.2426C5.41421 13.8995 5.41421 10.1005 7.75736 7.75736Z" fill="black"/>
    </symbol>
    <symbol id="icon-thumbs-down" viewBox="0 0 24 24">
      <path fill-rule="evenodd" clip-rule="evenodd" d="M14.1967 20.8952C13.8607 21.572 13.1703 22 12.4147 22C10.5741 22 9.17547 20.3533 9.45744 18.5384L9.85181 16H5.98994C3.56858 16 1.71124 13.8576 2.03703 11.46L2.71645 6.46001C2.98543 4.48052 4.67151 3 6.66936 3L20 3C21.1046 3 22 3.89543 22 5L22 12C22 13.1046 21.1046 14 20 14H17.62L14.1967 20.8952ZM18 12H20L20 5H18L18 12Z" fill="black"/>
    </symbol>
    <symbol id="icon-thumbs-down" viewBox="0 0 24 24">
      <path d="M17 13H20C20.5523 13 21 12.5523 21 12L21 5C21 4.44772 20.5523 4 20 4H17M17 13L17 4M17 13L13.301 20.4505C13.1339 20.7871 12.7905 21 12.4147 21V21C11.1917 21 10.2572 19.9046 10.4456 18.6919L11.0192 15L5.98994 15C4.17839 15 2.78316 13.3959 3.02793 11.5947L3.70735 6.59466C3.90933 5.1082 5.17443 4 6.66936 4H17" stroke="black" stroke-width="2" stroke-linejoin="round"/>
    </symbol>
    <symbol id="icon-thumbs-up" viewBox="0 0 24 24">
      <path fill-rule="evenodd" clip-rule="evenodd" d="M11 2C10.6212 2 10.275 2.214 10.1056 2.55279L6.38197 10H4C2.89543 10 2 10.8954 2 12V19C2 20.1046 2.89543 21 4 21H17.3813C19.3816 21 21.0744 19.5224 21.3446 17.5405L22.0265 12.5405C22.354 10.1387 20.4871 8 18.0631 8H14.1841L14.5798 5.46216C14.8634 3.64303 13.4567 2 11.6156 2H11ZM6 19V12H4V19H6Z" fill="black"/>
    </symbol>
    <symbol id="icon-thumbs-up" viewBox="0 0 24 24">
      <path d="M7 11H4C3.44772 11 3 11.4477 3 12V19C3 19.5523 3.44772 20 4 20H7M7 11V20M7 11L11 3H11.6156C12.843 3 13.7808 4.09535 13.5917 5.3081L13.0161 9H18.0631C19.8811 9 21.2813 10.6041 21.0356 12.4053L20.3538 17.4053C20.1511 18.8918 18.8815 20 17.3813 20H7" stroke="black" stroke-width="2" stroke-linejoin="round"/>
    </symbol>
    <symbol id="icon-thunder" viewBox="0 0 24 24">
      <path d="M19.0037 9.98686H12.9944L15.466 2.32508C15.8017 1.28423 14.4862 0.525745 13.773 1.34898L4.24869 12.3429C3.68506 12.9935 4.14148 14.0131 4.99634 14.0131H11.0056L8.53401 21.6749C8.19825 22.7158 9.51377 23.4743 10.227 22.651L19.7513 11.6571C20.3149 11.0065 19.8585 9.98686 19.0037 9.98686Z" stroke="black" stroke-width="2" stroke-linejoin="round"/>
    </symbol>
    <symbol id="icon-translate" viewBox="0 0 24 24">
      <path d="M14.3438 17.1249H19.6563M21.25 19.2499L17.9355 10.4762C17.6098 9.61406 16.3902 9.61406 16.0645 10.4762L12.75 19.2499" stroke="black" stroke-width="2" stroke-linecap="round" stroke-linejoin="round"/>
      <path d="M12 3.60001L12 12" stroke="black" stroke-width="2" stroke-linecap="round" stroke-linejoin="round"/>
      <path d="M7.80005 7.20001H11.4001" stroke="black" stroke-width="2" stroke-linecap="round" stroke-linejoin="round"/>
      <path d="M9.6001 3.60001H14.4001" stroke="black" stroke-width="2" stroke-linecap="round" stroke-linejoin="round"/>
      <path d="M3.6001 3.60001H5.40011C6.39422 3.60001 7.20011 4.40589 7.20011 5.40001V5.40001C7.20011 6.39412 6.39422 7.20001 5.40011 7.20001H4.8001" stroke="black" stroke-width="2" stroke-linecap="round" stroke-linejoin="round"/>
      <path d="M4.8 7.20001H5.91754C7.28857 7.20001 8.40002 8.31146 8.40002 9.6825V9.6825C8.40002 10.9874 7.38651 12.1048 6.08371 12.0308C5.95008 12.0232 5.82102 12.0131 5.70001 12C4.65173 11.8863 3 10.8 3 10.8" stroke="black" stroke-width="2" stroke-linecap="round" stroke-linejoin="round"/>
    </symbol>
    <symbol id="icon-trash-can" viewBox="0 0 24 24">
      <path d="M5.8133 18.1996L6.81109 18.133L5.8133 18.1996ZM18.1867 18.1996L19.1845 18.2661L18.1867 18.1996ZM3 5C2.44772 5 2 5.44772 2 6C2 6.55228 2.44772 7 3 7V5ZM21 7C21.5523 7 22 6.55228 22 6C22 5.44772 21.5523 5 21 5V7ZM11 11C11 10.4477 10.5523 10 10 10C9.44772 10 9 10.4477 9 11H11ZM9 16C9 16.5523 9.44772 17 10 17C10.5523 17 11 16.5523 11 16H9ZM15 11C15 10.4477 14.5523 10 14 10C13.4477 10 13 10.4477 13 11H15ZM13 16C13 16.5523 13.4477 17 14 17C14.5523 17 15 16.5523 15 16H13ZM14.9056 6.24926C15.0432 6.78411 15.5884 7.1061 16.1233 6.96844C16.6581 6.83078 16.9801 6.28559 16.8424 5.75074L14.9056 6.24926ZM5 6L4.00221 6.06652L4.81552 18.2661L5.8133 18.1996L6.81109 18.133L5.99779 5.93348L5 6ZM8.80666 21V22H15.1933V21V20H8.80666V21ZM18.1867 18.1996L19.1845 18.2661L19.9978 6.06652L19 6L18.0022 5.93348L17.1889 18.133L18.1867 18.1996ZM19 6V5H5V6V7H19V6ZM3 6V7H5V6V5H3V6ZM19 6V7H21V6V5H19V6ZM15.1933 21V22C17.2992 22 19.0444 20.3673 19.1845 18.2661L18.1867 18.1996L17.1889 18.133C17.1189 19.1836 16.2463 20 15.1933 20V21ZM5.8133 18.1996L4.81552 18.2661C4.9556 20.3673 6.7008 22 8.80666 22V21V20C7.75373 20 6.88113 19.1836 6.81109 18.133L5.8133 18.1996ZM10 11H9V16H10H11V11H10ZM14 11H13V16H14H15V11H14ZM12 3V4C13.3965 4 14.5725 4.95512 14.9056 6.24926L15.874 6L16.8424 5.75074C16.2874 3.59442 14.3312 2 12 2V3ZM8.12604 6L9.09447 6.24926C9.42756 4.95512 10.6035 4 12 4V3V2C9.66885 2 7.7126 3.59442 7.1576 5.75074L8.12604 6Z" fill="black"/>
    </symbol>
    <symbol id="icon-triangle-exclamation" viewBox="0 0 24 24">
      <path d="M12 8.8846V11.9192M12 15H12.01M9.48223 4.43254L3.45153 14.3633C2.22395 16.3848 3.64405 19 5.9693 19H18.0307C20.3559 19 21.7761 16.3848 20.5485 14.3633L14.5178 4.43254C13.3578 2.52249 10.6422 2.52249 9.48223 4.43254ZM12.25 15C12.25 15.1381 12.1381 15.25 12 15.25C11.8619 15.25 11.75 15.1381 11.75 15C11.75 14.8619 11.8619 14.75 12 14.75C12.1381 14.75 12.25 14.8619 12.25 15Z" stroke="black" stroke-width="2" stroke-linecap="round"/>
    </symbol>
    <symbol id="icon-volume-full" viewBox="0 0 24 24">
      <path d="M19.071 4.92968C20.8807 6.73932 22 9.23932 22 12.0007C22 14.7622 20.8807 17.2622 19.071 19.0718M15.8891 8.11132C16.8844 9.10662 17.5 10.4816 17.5 12.0004C17.5 13.5192 16.8844 14.8942 15.8891 15.8895M4 7.99999H5.2759C5.74377 7.99999 6.19684 7.83596 6.55627 7.53643L10.3598 4.36681C11.0111 3.82403 12 4.28719 12 5.13503V18.8649C12 19.7128 11.0111 20.1759 10.3598 19.6332L6.55627 16.4635C6.19684 16.164 5.74377 16 5.2759 16H4C2.89543 16 2 15.1046 2 14V9.99999C2 8.89542 2.89543 7.99999 4 7.99999Z" stroke="black" stroke-width="2" stroke-linecap="round" stroke-linejoin="round"/>
    </symbol>
  </defs>
</svg>