<svg width="16" height="16" viewBox="0 0 16 16" fill="none" xmlns="http://www.w3.org/2000/svg">
<path d="M7.99998 8.66666C8.36817 8.66666 8.66665 8.36818 8.66665 7.99999C8.66665 7.63181 8.36817 7.33333 7.99998 7.33333C7.63179 7.33333 7.33331 7.63181 7.33331 7.99999C7.33331 8.36818 7.63179 8.66666 7.99998 8.66666Z" fill="black"/>
<path d="M13.5 8.66666C13.8682 8.66666 14.1666 8.36818 14.1666 7.99999C14.1666 7.63181 13.8682 7.33333 13.5 7.33333C13.1318 7.33333 12.8333 7.63181 12.8333 7.99999C12.8333 8.36818 13.1318 8.66666 13.5 8.66666Z" fill="black"/>
<path d="M2.49998 8.66666C2.86817 8.66666 3.16665 8.36818 3.16665 7.99999C3.16665 7.63181 2.86817 7.33333 2.49998 7.33333C2.13179 7.33333 1.83331 7.63181 1.83331 7.99999C1.83331 8.36818 2.13179 8.66666 2.49998 8.66666Z" fill="black"/>
<path d="M7.99998 8.66666C8.36817 8.66666 8.66665 8.36818 8.66665 7.99999C8.66665 7.63181 8.36817 7.33333 7.99998 7.33333C7.63179 7.33333 7.33331 7.63181 7.33331 7.99999C7.33331 8.36818 7.63179 8.66666 7.99998 8.66666Z" stroke="black" stroke-width="1.5" stroke-linecap="round" stroke-linejoin="round"/>
<path d="M13.5 8.66666C13.8682 8.66666 14.1666 8.36818 14.1666 7.99999C14.1666 7.63181 13.8682 7.33333 13.5 7.33333C13.1318 7.33333 12.8333 7.63181 12.8333 7.99999C12.8333 8.36818 13.1318 8.66666 13.5 8.66666Z" stroke="black" stroke-width="1.5" stroke-linecap="round" stroke-linejoin="round"/>
<path d="M2.49998 8.66666C2.86817 8.66666 3.16665 8.36818 3.16665 7.99999C3.16665 7.63181 2.86817 7.33333 2.49998 7.33333C2.13179 7.33333 1.83331 7.63181 1.83331 7.99999C1.83331 8.36818 2.13179 8.66666 2.49998 8.66666Z" stroke="black" stroke-width="1.5" stroke-linecap="round" stroke-linejoin="round"/>
</svg>
