<svg width="16" height="16" viewBox="0 0 16 16" fill="none" xmlns="http://www.w3.org/2000/svg">
<path d="M9.04969 5.56729L9.36852 4.92962C9.49137 4.68394 9.84197 4.68394 9.96481 4.92962L10.2836 5.56729C10.3159 5.6318 10.3682 5.6841 10.4327 5.71636L11.0704 6.03519C11.3161 6.15803 11.3161 6.50863 11.0704 6.63148L10.4327 6.95031C10.3682 6.98256 10.3159 7.03487 10.2836 7.09938L9.96481 7.73705C9.84197 7.98273 9.49137 7.98273 9.36852 7.73705L9.04969 7.09938C9.01744 7.03487 8.96513 6.98256 8.90062 6.95031L8.26295 6.63148C8.01727 6.50863 8.01727 6.15803 8.26295 6.03519L8.90062 5.71636C8.96513 5.6841 9.01744 5.6318 9.04969 5.56729Z" fill="black"/>
<path fill-rule="evenodd" clip-rule="evenodd" d="M2 4.66667C2 3.19391 3.19391 2 4.66667 2H11.3333C12.8061 2 14 3.19391 14 4.66667V11.3333C14 12.8061 12.8061 14 11.3333 14H4.66667C3.19391 14 2 12.8061 2 11.3333V4.66667ZM4.66667 3.33333C3.93029 3.33333 3.33333 3.93029 3.33333 4.66667V9.05719L3.44772 8.94281C4.48911 7.90141 6.17755 7.90141 7.21895 8.94281L10.9428 12.6667H11.3333C12.0697 12.6667 12.6667 12.0697 12.6667 11.3333V4.66667C12.6667 3.93029 12.0697 3.33333 11.3333 3.33333H4.66667ZM9.05719 12.6667L6.27614 9.88562C5.75544 9.36492 4.91122 9.36492 4.39052 9.88562L3.33333 10.9428V11.3333C3.33333 12.0697 3.93029 12.6667 4.66667 12.6667H9.05719Z" fill="black"/>
</svg>
