<svg width="16" height="16" viewBox="0 0 16 16" fill="none" xmlns="http://www.w3.org/2000/svg">
<path d="M3.59202 13.282L3.93251 12.6138L3.93251 12.6138L3.59202 13.282ZM2.71799 12.408L2.04973 12.7485L2.04973 12.7485L2.71799 12.408ZM13.282 12.408L12.6138 12.0675L12.6138 12.0675L13.282 12.408ZM12.408 13.282L12.0675 12.6138L12.0675 12.6138L12.408 13.282ZM13.282 3.59202L12.6138 3.93251L12.6138 3.93251L13.282 3.59202ZM12.408 2.71799L12.7485 2.04973L12.7485 2.04973L12.408 2.71799ZM2.71799 3.59202L3.38624 3.93251L3.38624 3.93251L2.71799 3.59202ZM3.59202 2.71799L3.93251 3.38624L3.93251 3.38624L3.59202 2.71799ZM5.75 13.5V14.25H7.25V13.5H5.75ZM7.25 2.5V1.75H5.75V2.5H7.25ZM13.5 5.7H12.75V10.3H13.5H14.25V5.7H13.5ZM10.3 13.5V12.75H5.7V13.5V14.25H10.3V13.5ZM2.5 10.3H3.25V5.7H2.5H1.75V10.3H2.5ZM5.7 2.5V3.25H10.3V2.5V1.75H5.7V2.5ZM5.7 13.5V12.75C5.12757 12.75 4.74336 12.7494 4.44748 12.7252C4.16035 12.7018 4.02307 12.6599 3.93251 12.6138L3.59202 13.282L3.25153 13.9503C3.58879 14.1221 3.94545 14.1892 4.32533 14.2203C4.69646 14.2506 5.15232 14.25 5.7 14.25V13.5ZM2.5 10.3H1.75C1.75 10.8477 1.74942 11.3035 1.77974 11.6747C1.81078 12.0546 1.87789 12.4112 2.04973 12.7485L2.71799 12.408L3.38624 12.0675C3.3401 11.9769 3.29822 11.8396 3.27476 11.5525C3.25058 11.2566 3.25 10.8724 3.25 10.3H2.5ZM3.59202 13.282L3.93251 12.6138C3.69731 12.4939 3.50608 12.3027 3.38624 12.0675L2.71799 12.408L2.04973 12.7485C2.31338 13.2659 2.73408 13.6866 3.25153 13.9503L3.59202 13.282ZM13.5 10.3H12.75C12.75 10.8724 12.7494 11.2566 12.7252 11.5525C12.7018 11.8396 12.6599 11.9769 12.6138 12.0675L13.282 12.408L13.9503 12.7485C14.1221 12.4112 14.1892 12.0546 14.2203 11.6747C14.2506 11.3035 14.25 10.8477 14.25 10.3H13.5ZM10.3 13.5V14.25C10.8477 14.25 11.3035 14.2506 11.6747 14.2203C12.0546 14.1892 12.4112 14.1221 12.7485 13.9503L12.408 13.282L12.0675 12.6138C11.9769 12.6599 11.8396 12.7018 11.5525 12.7252C11.2566 12.7494 10.8724 12.75 10.3 12.75V13.5ZM13.282 12.408L12.6138 12.0675C12.4939 12.3027 12.3027 12.4939 12.0675 12.6138L12.408 13.282L12.7485 13.9503C13.2659 13.6866 13.6866 13.2659 13.9503 12.7485L13.282 12.408ZM13.5 5.7H14.25C14.25 5.15232 14.2506 4.69646 14.2203 4.32533C14.1892 3.94545 14.1221 3.58879 13.9503 3.25153L13.282 3.59202L12.6138 3.93251C12.6599 4.02307 12.7018 4.16035 12.7252 4.44748C12.7494 4.74336 12.75 5.12757 12.75 5.7H13.5ZM10.3 2.5V3.25C10.8724 3.25 11.2566 3.25058 11.5525 3.27476C11.8396 3.29822 11.9769 3.3401 12.0675 3.38624L12.408 2.71799L12.7485 2.04973C12.4112 1.87789 12.0546 1.81078 11.6747 1.77974C11.3035 1.74942 10.8477 1.75 10.3 1.75V2.5ZM13.282 3.59202L13.9503 3.25153C13.6866 2.73408 13.2659 2.31338 12.7485 2.04973L12.408 2.71799L12.0675 3.38624C12.3027 3.50608 12.4939 3.69731 12.6138 3.93251L13.282 3.59202ZM2.5 5.7H3.25C3.25 5.12757 3.25058 4.74336 3.27476 4.44748C3.29822 4.16035 3.3401 4.02307 3.38624 3.93251L2.71799 3.59202L2.04973 3.25153C1.87789 3.58879 1.81078 3.94545 1.77974 4.32533C1.74942 4.69646 1.75 5.15232 1.75 5.7H2.5ZM5.7 2.5V1.75C5.15232 1.75 4.69646 1.74942 4.32533 1.77974C3.94545 1.81078 3.58879 1.87789 3.25153 2.04973L3.59202 2.71799L3.93251 3.38624C4.02307 3.3401 4.16035 3.29822 4.44748 3.27476C4.74336 3.25058 5.12757 3.25 5.7 3.25V2.5ZM2.71799 3.59202L3.38624 3.93251C3.50608 3.69731 3.69731 3.50608 3.93251 3.38624L3.59202 2.71799L3.25153 2.04973C2.73408 2.31338 2.31338 2.73408 2.04973 3.25153L2.71799 3.59202ZM6.5 13.5H7.25V2.5H6.5H5.75V13.5H6.5Z" fill="black"/>
</svg>
