<svg width="16" height="16" viewBox="0 0 16 16" fill="none" xmlns="http://www.w3.org/2000/svg">
<path fill-rule="evenodd" clip-rule="evenodd" d="M5.6786 2H10.3214C10.8633 2 11.3004 1.99999 11.6543 2.02891C12.0187 2.05868 12.3388 2.12159 12.635 2.27248C13.1054 2.51217 13.4878 2.89462 13.7275 3.36502C13.8784 3.66117 13.9413 3.98126 13.9711 4.34569C14 4.69963 14 5.1367 14 5.67858V10.3214C14 10.8633 14 11.3004 13.9711 11.6543C13.9413 12.0187 13.8784 12.3388 13.7275 12.635C13.4878 13.1054 13.1054 13.4878 12.635 13.7275C12.3388 13.8784 12.0187 13.9413 11.6543 13.9711C11.3004 14 10.8633 14 10.3214 14H5.67858C5.1367 14 4.69963 14 4.34569 13.9711C3.98126 13.9413 3.66117 13.8784 3.36502 13.7275C2.89462 13.4878 2.51217 13.1054 2.27248 12.635C2.12159 12.3388 2.05868 12.0187 2.02891 11.6543C1.99999 11.3004 2 10.8633 2 10.3214V5.67859C2 5.1367 1.99999 4.69963 2.02891 4.34569C2.05868 3.98126 2.12159 3.66117 2.27248 3.36502C2.51217 2.89462 2.89462 2.51217 3.36502 2.27248C3.66117 2.12159 3.98126 2.05868 4.34569 2.02891C4.69963 1.99999 5.13671 2 5.6786 2ZM10.6847 6.96302C10.88 6.76775 10.88 6.45117 10.6847 6.25591C10.4895 6.06065 10.1729 6.06065 9.97763 6.25591L7.33118 8.90236L6.3514 7.92258C6.15614 7.72731 5.83956 7.72731 5.6443 7.92258C5.44904 8.11784 5.44904 8.43442 5.6443 8.62968L6.97763 9.96302C7.17289 10.1583 7.48948 10.1583 7.68474 9.96302L10.6847 6.96302Z" fill="black"/>
</svg>
