<svg width="16" height="16" viewBox="0 0 16 16" fill="none" xmlns="http://www.w3.org/2000/svg">
<path d="M2.5 3.83333C2.5 3.09695 3.09695 2.5 3.83333 2.5H5.5C6.23638 2.5 6.83333 3.09695 6.83333 3.83333V5.5C6.83333 6.23638 6.23638 6.83333 5.5 6.83333H3.83333C3.09695 6.83333 2.5 6.23638 2.5 5.5V3.83333Z" stroke="black" stroke-width="1.5" stroke-linecap="round" stroke-linejoin="round"/>
<path d="M2.5 10.5C2.5 9.76363 3.09695 9.16667 3.83333 9.16667H5.5C6.23638 9.16667 6.83333 9.76363 6.83333 10.5V12.1667C6.83333 12.9031 6.23638 13.5 5.5 13.5H3.83333C3.09695 13.5 2.5 12.9031 2.5 12.1667V10.5Z" stroke="black" stroke-width="1.5" stroke-linecap="round" stroke-linejoin="round"/>
<path d="M9.16663 11.3333C9.16663 10.1367 10.1367 9.16667 11.3333 9.16667C12.5299 9.16667 13.5 10.1367 13.5 11.3333C13.5 12.53 12.5299 13.5 11.3333 13.5C10.1367 13.5 9.16663 12.53 9.16663 11.3333Z" stroke="black" stroke-width="1.5" stroke-linecap="round" stroke-linejoin="round"/>
<path d="M9.16663 3.83333C9.16663 3.09695 9.76358 2.5 10.5 2.5H12.1666C12.903 2.5 13.5 3.09695 13.5 3.83333V5.5C13.5 6.23638 12.903 6.83333 12.1666 6.83333H10.5C9.76358 6.83333 9.16663 6.23638 9.16663 5.5V3.83333Z" stroke="black" stroke-width="1.5" stroke-linecap="round" stroke-linejoin="round"/>
</svg>
