<svg width="16" height="16" viewBox="0 0 16 16" fill="none" xmlns="http://www.w3.org/2000/svg">
<path d="M12.8319 3.16798C14.0685 4.40457 14.8334 6.1129 14.8334 7.99987C14.8334 9.88684 14.0685 11.5952 12.8319 12.8318M10.5927 5.40756C11.2563 6.0711 11.6667 6.98776 11.6667 8.00028C11.6667 9.01281 11.2563 9.92947 10.5927 10.593M2.50002 5.16667H3.53231C3.83507 5.16667 4.12882 5.06363 4.36524 4.8745L7.08356 2.69984C7.52007 2.35064 8.16669 2.66142 8.16669 3.22042V12.7796C8.16669 13.3386 7.52007 13.6494 7.08356 13.3002L4.36524 11.1255C4.12882 10.9364 3.83507 10.8333 3.53231 10.8333H2.50002C1.76364 10.8333 1.16669 10.2364 1.16669 9.50001V6.50001C1.16669 5.76363 1.76364 5.16667 2.50002 5.16667Z" stroke="black" stroke-width="1.5" stroke-linecap="round" stroke-linejoin="round"/>
</svg>
